<?xml version="1.0" encoding="UTF-8"?>
<svg width="36px" height="36px" viewBox="0 0 36 36" version="1.1" xmlns="http://www.w3.org/2000/svg" xmlns:xlink="http://www.w3.org/1999/xlink">
    <!-- Generator: sketchtool 49.3 (51167) - http://www.bohemiancoding.com/sketch -->
    <title>B9405AA8-490F-4650-B753-960C7E47D388</title>
    <desc>Created with sketchtool.</desc>
    <defs></defs>
    <g id="Design" stroke="none" stroke-width="1" fill="none" fill-rule="evenodd">
        <g id="Player-catalogue---Desktop" transform="translate(-370.000000, -276.000000)" fill="#085F7A">
            <g id="Filter-bar" transform="translate(0.000000, 264.000000)">
                <g id="Group-6-Copy" transform="translate(351.000000, 12.000000)">
                    <path d="M55,12.8571429 L49.9375,7.79464286 L44.3928571,13.3392857 C46.3214382,15.9642988 47.2857143,18.8035562 47.2857143,21.8571429 C47.2857143,25.7678767 45.9062638,29.1026648 43.1473214,31.8616071 C40.3883791,34.6205495 37.053591,36 33.1428571,36 C29.2321233,36 25.8973352,34.6205495 23.1383929,31.8616071 C20.3794505,29.1026648 19,25.7678767 19,21.8571429 C19,17.946409 20.3794505,14.6116209 23.1383929,11.8526786 C25.8973352,9.09373621 29.2321233,7.71428571 33.1428571,7.71428571 C36.1964438,7.71428571 39.0357012,8.67856179 41.6607143,10.6071429 L47.2053571,5.0625 L42.1428571,0 L55,0 L55,12.8571429 Z M33.1428571,32.1428571 C35.9285854,32.1428571 38.3392755,31.1250102 40.375,29.0892857 C42.4107245,27.0535612 43.4285714,24.6428711 43.4285714,21.8571429 C43.4285714,19.0714146 42.4107245,16.6607245 40.375,14.625 C38.3392755,12.5892755 35.9285854,11.5714286 33.1428571,11.5714286 C30.3571289,11.5714286 27.9464388,12.5892755 25.9107143,14.625 C23.8749898,16.6607245 22.8571429,19.0714146 22.8571429,21.8571429 C22.8571429,24.6428711 23.8749898,27.0535612 25.9107143,29.0892857 C27.9464388,31.1250102 30.3571289,32.1428571 33.1428571,32.1428571 Z" id="ion-male---Ionicons"></path>
                </g>
            </g>
        </g>
    </g>
</svg>