<?xml version="1.0" encoding="UTF-8"?>
<svg width="23px" height="40px" viewBox="0 0 23 40" version="1.1" xmlns="http://www.w3.org/2000/svg" xmlns:xlink="http://www.w3.org/1999/xlink">
    <!-- Generator: sketchtool 49.3 (51167) - http://www.bohemiancoding.com/sketch -->
    <title>37CB1E69-5B51-4453-A080-44FE2DFDBB70</title>
    <desc>Created with sketchtool.</desc>
    <defs></defs>
    <g id="Design" stroke="none" stroke-width="1" fill="none" fill-rule="evenodd">
        <g id="Player-catalogue---Desktop" transform="translate(-448.000000, -272.000000)" fill="#71D6C6">
            <g id="Filter-bar" transform="translate(0.000000, 264.000000)">
                <g id="Group-5-Copy" transform="translate(426.000000, 8.000000)">
                    <path d="M36.2857143,22.5 L36.2857143,28.5714286 L42,28.5714286 L42,34.2857143 L36.2857143,34.2857143 L36.2857143,40 L30.5714286,40 L30.5714286,34.2857143 L24.8571429,34.2857143 L24.8571429,28.5714286 L30.5714286,28.5714286 L30.5714286,22.5 C28.0714161,21.8452348 26.0178652,20.4910817 24.4107143,18.4375 C22.8035634,16.3839183 22,14.0476321 22,11.4285714 C22,8.27379375 23.1160603,5.5803683 25.3482143,3.34821429 C27.5803683,1.11606027 30.2737938,0 33.4285714,0 C36.5833491,0 39.2767746,1.11606027 41.5089286,3.34821429 C43.7410826,5.5803683 44.8571429,8.27379375 44.8571429,11.4285714 C44.8571429,14.0476321 44.0535795,16.3839183 42.4464286,18.4375 C40.8392777,20.4910817 38.7857268,21.8452348 36.2857143,22.5 Z M28.3392857,16.5178571 C29.7678643,17.8869116 31.4642759,18.5714286 33.4285714,18.5714286 C35.392867,18.5714286 37.0743978,17.8720308 38.4732143,16.4732143 C39.8720308,15.0743978 40.5714286,13.392867 40.5714286,11.4285714 C40.5714286,9.46427589 39.8720308,7.78274509 38.4732143,6.38392857 C37.0743978,4.98511205 35.392867,4.28571429 33.4285714,4.28571429 C31.4642759,4.28571429 29.7827451,4.98511205 28.3839286,6.38392857 C26.9851121,7.78274509 26.2857143,9.46427589 26.2857143,11.4285714 C26.2857143,13.392867 26.9702312,15.0892786 28.3392857,16.5178571 Z" id="ion-female---Ionicons"></path>
                </g>
            </g>
        </g>
    </g>
</svg>