<?xml version="1.0" encoding="UTF-8"?>
<svg width="243px" height="24px" viewBox="0 0 243 24" version="1.1" xmlns="http://www.w3.org/2000/svg" xmlns:xlink="http://www.w3.org/1999/xlink">
    <!-- Generator: Sketch 49.3 (51167) - http://www.bohemiancoding.com/sketch -->
    <title>J Lindeberg</title>
    <desc>Created with Sketch.</desc>
    <defs>
        <polygon id="path-1" points="0 0.255085714 14.4 0.255085714 14.4 24 0 24"></polygon>
        <polygon id="path-3" points="0 24 242.285714 24 242.285714 0 0 0"></polygon>
    </defs>
    <g id="Design" stroke="none" stroke-width="1" fill="none" fill-rule="evenodd" opacity="0.5">
        <g id="Player-profile-Mobile---Biography-Collapsed-Copy" transform="translate(-17.000000, -1992.000000)">
            <g id="Footer" transform="translate(0.000000, 1072.000000)">
                <g id="J-Lindeberg" transform="translate(17.000000, 920.000000)">
                    <g id="Group-3">
                        <mask id="mask-2" fill="white">
                            <use xlink:href="#path-1"></use>
                        </mask>
                        <g id="Clip-2"></g>
                        <path d="M14.4,16.1788952 C14.4,19.2519111 13.6,24.0011175 7.2,24.0011175 C3.46666667,24.0011175 0,22.0455619 0,17.0169905 L0,14.7820698 L4.26666667,14.7820698 L4.26666667,15.8967365 C4.26666667,18.1316571 4.8,19.8106413 6.93333333,19.8106413 C9.6,19.8106413 9.6,17.5757206 9.6,15.8967365 L9.6,0.255085714 L14.4,0.255085714 L14.4,16.1788952 Z" id="Fill-1" fill="#FFFEFC" mask="url(#mask-2)"></path>
                    </g>
                    <mask id="mask-4" fill="white">
                        <use xlink:href="#path-3"></use>
                    </mask>
                    <g id="Clip-5"></g>
                    <polygon id="Fill-4" fill="#FFFEFC" mask="url(#mask-4)" points="21.7142857 22.8571429 26.2857143 22.8571429 26.2857143 18.2857143 21.7142857 18.2857143"></polygon>
                    <polygon id="Fill-6" fill="#FFFEFC" mask="url(#mask-4)" points="32 1.14285714 36.9655172 1.14285714 36.9655172 19.8188153 48 19.8188153 48 24 32 24"></polygon>
                    <polygon id="Fill-7" fill="#FFFEFC" mask="url(#mask-4)" points="54.8571429 24 59.4285714 24 59.4285714 1.14285714 54.8571429 1.14285714"></polygon>
                    <polygon id="Fill-8" fill="#FFFEFC" mask="url(#mask-4)" points="67.4285714 1.14285714 72.4968944 1.14285714 82.0703934 16.4738676 82.0703934 1.14285714 86.8571429 1.14285714 86.8571429 24 81.7888199 24 72.2153209 8.66898955 72.2153209 24 67.4285714 24"></polygon>
                    <path d="M99.9295499,19.5938038 L104.438356,19.5938038 C107.25636,19.5938038 110.356164,17.9414802 110.356164,12.7091222 C110.356164,8.02753873 108.665362,5.27366609 103.592955,5.27366609 L99.9295499,5.27366609 L99.9295499,19.5938038 Z M94.8571429,1.14285714 L105.001957,1.14285714 C110.919765,1.14285714 115.428571,4.72289157 115.428571,12.4337349 C115.428571,19.0430293 112.046967,24 105.001957,24 L95.1389432,24 L94.8571429,1.14285714 Z" id="Fill-9" fill="#FFFEFC" mask="url(#mask-4)"></path>
                    <polygon id="Fill-10" fill="#FFFEFC" mask="url(#mask-4)" points="121.142857 1.14285714 138.013605 1.14285714 138.013605 5.32404181 126.040816 5.32404181 126.040816 10.3414634 136.92517 10.3414634 136.92517 14.2439024 126.040816 14.2439024 126.040816 19.8188153 138.285714 19.8188153 138.285714 24 121.142857 24"></polygon>
                    <path d="M150.213261,20.097561 L155.559567,20.097561 C157.533111,20.097561 159.219492,19.5428571 159.219492,17.0313589 C159.219492,14.8041812 157.811829,13.6864111 155.559567,13.6864111 L149.928913,13.6864111 C150.213261,13.6864111 150.213261,20.097561 150.213261,20.097561 Z M150.213261,10.3414634 L155.28085,10.3414634 C156.96723,10.3414634 158.374894,9.50522648 158.374894,7.55400697 C158.374894,5.32404181 156.688513,5.04808362 154.996502,5.04808362 L150.213261,5.04808362 L150.213261,10.3414634 Z M145.142857,1.14285714 L156.125448,1.14285714 C160.627155,1.14285714 163.442482,2.53658537 163.442482,6.71777003 C163.442482,8.94773519 162.319167,10.6229965 160.348438,11.456446 C163.163765,12.2926829 164.571429,14.5226481 164.571429,17.3101045 C164.571429,22.0487805 160.627155,24 156.404165,24 L145.142857,24 L145.142857,1.14285714 Z" id="Fill-11" fill="#FFFEFC" mask="url(#mask-4)"></path>
                    <polygon id="Fill-12" fill="#FFFEFC" mask="url(#mask-4)" points="171.428571 1.14285714 188.294931 1.14285714 188.294931 5.32404181 176.40553 5.32404181 176.40553 10.3414634 187.465438 10.3414634 187.465438 14.2439024 176.40553 14.2439024 176.40553 19.8188153 188.571429 19.8188153 188.571429 24 171.428571 24"></polygon>
                    <path d="M200.627767,11.456446 L206.100604,11.456446 C208.289738,11.456446 209.384306,10.6202091 209.384306,8.11149826 C209.384306,5.8815331 208.289738,5.04529617 206.100604,5.04529617 L200.627767,5.04529617 L200.627767,11.456446 Z M195.702213,1.14285714 L207.742455,1.14285714 C211.847082,1.14285714 214.309859,3.93031359 214.309859,7.55400697 C214.309859,10.3414634 213.215292,12.2926829 210.752515,13.4076655 C213.215292,13.9651568 213.762575,16.4738676 214.036217,18.7038328 C214.036217,20.097561 214.036217,22.8850174 214.857143,24 L209.93159,24 C209.384306,22.6062718 209.384306,20.3763066 209.110664,18.4250871 C208.837022,15.9163763 207.742455,15.0801394 205.279678,15.0801394 L200.354125,15.0801394 L200.354125,24 L195.428571,24 L195.702213,1.14285714 Z" id="Fill-13" fill="#FFFEFC" mask="url(#mask-4)"></path>
                    <path d="M238.10989,20.9277991 C236.43956,23.162888 233.934066,24 231.70696,24 C224.747253,24 220.571429,18.6955005 220.571429,11.9986048 C220.571429,5.3017091 224.747253,0 231.70696,0 C236.43956,0 240.893773,2.79037321 241.450549,8.09208232 L236.717949,8.09208232 C236.161172,5.58074642 234.215238,4.18555982 231.985348,4.18555982 C227.531136,4.18555982 225.86359,8.09208232 225.86359,11.9986048 C225.86359,15.9051273 227.531136,19.8144402 231.985348,19.8144402 C235.326007,19.8144402 237.274725,18.1374259 237.553114,14.788978 L232.542125,14.788978 L232.542125,10.8824555 L242.285714,10.8824555 L242.285714,23.162888 L239.223443,23.162888 L238.10989,20.9277991 Z" id="Fill-14" fill="#FFFEFC" mask="url(#mask-4)"></path>
                </g>
            </g>
        </g>
    </g>
</svg>