<?xml version="1.0" encoding="UTF-8"?>
<svg width="195px" height="40px" viewBox="0 0 195 40" version="1.1" xmlns="http://www.w3.org/2000/svg" xmlns:xlink="http://www.w3.org/1999/xlink">
    <!-- Generator: Sketch 49.3 (51167) - http://www.bohemiancoding.com/sketch -->
    <title>Sport Competence</title>
    <desc>Created with Sketch.</desc>
    <defs>
        <polygon id="path-1" points="0.256450658 0.19826087 11.9307928 0.19826087 11.9307928 16.4555861 0.256450658 16.4555861"></polygon>
        <polygon id="path-3" points="0.522190848 0.37668599 10.250558 0.37668599 10.250558 11.3042222 0.522190848 11.3042222"></polygon>
    </defs>
    <g id="Design" stroke="none" stroke-width="1" fill="none" fill-rule="evenodd" opacity="0.5">
        <g id="Player-profile-Mobile---Biography-Collapsed-Copy" transform="translate(-16.000000, -2153.000000)">
            <g id="Footer" transform="translate(0.000000, 1072.000000)">
                <g id="Sport-Competence" transform="translate(16.000000, 1081.000000)">
                    <g id="Group-3" transform="translate(71.383929, 0.000000)">
                        <mask id="mask-2" fill="white">
                            <use xlink:href="#path-1"></use>
                        </mask>
                        <g id="Clip-2"></g>
                        <path d="M11.6100691,4.55993391 L9.87816118,4.55993391 C9.87816118,3.30428174 9.68572697,2.4451513 9.23671382,2.11471652 C8.85184539,1.78428174 7.82552961,1.58602087 6.28605592,1.58602087 C4.42585855,1.58602087 3.27125329,1.78428174 2.75809539,2.11471652 C2.2449375,2.4451513 1.98835855,3.17210783 1.98835855,4.36167304 C1.98835855,5.61732522 2.18079276,6.4103687 2.62980592,6.74080348 C3.01467434,7.0051513 4.29756908,7.20341217 6.35020066,7.33558609 C8.78770066,7.46776 10.3271743,7.73210783 10.9686217,8.26080348 C11.6100691,8.78949913 11.9307928,9.97906435 11.9307928,11.7634122 C11.9307928,13.7460209 11.5459243,15.001673 10.7761875,15.5964557 C10.0064507,16.1912383 8.3386875,16.4555861 5.77289803,16.4555861 C3.52783224,16.4555861 2.05250329,16.1912383 1.34691118,15.5964557 C0.577174342,15.001673 0.256450658,13.8121078 0.256450658,12.093847 L0.256450658,11.3668904 L1.98835855,11.3668904 L1.98835855,11.7634122 C1.98835855,13.2173252 2.18079276,14.0764557 2.62980592,14.4068904 C3.07881908,14.7373252 4.16927961,14.9355861 5.9011875,14.9355861 C7.88967434,14.9355861 9.10842434,14.7373252 9.62158224,14.4068904 C10.0705954,14.0764557 10.3271743,13.1512383 10.3271743,11.6312383 C10.3271743,10.6399339 10.1988849,9.97906435 9.87816118,9.71471652 C9.5574375,9.38428174 8.91599013,9.18602087 7.88967434,9.11993391 L6.09362171,9.05384696 L4.36171382,8.98776 C1.73177961,8.78949913 0.448884868,7.40167304 0.448884868,4.75819478 C0.448884868,2.97384696 0.833753289,1.71819478 1.60349013,1.12341217 C2.37322697,0.528629565 3.91270066,0.198194783 6.15776645,0.198194783 C8.46697697,0.198194783 10.0064507,0.462542609 10.7120428,1.05732522 C11.2893454,1.45384696 11.6100691,2.64341217 11.6100691,4.55993391" id="Fill-1" fill="#FFFEFC" mask="url(#mask-2)"></path>
                    </g>
                    <path d="M90.9384111,5.63079116 C89.6355685,5.63079116 88.7887208,5.88738418 88.3978681,6.46471846 C88.0070153,7.04205274 87.8115889,8.19672131 87.8115889,9.99287242 C87.8115889,11.660727 88.0070153,12.7512473 88.4630102,13.3285816 C88.9190051,13.9059159 89.7658528,14.1625089 91.0035532,14.1625089 C92.2412536,14.1625089 93.0229592,13.9059159 93.413812,13.3285816 C93.8046647,12.8153956 94.0000911,11.660727 94.0000911,9.99287242 C94.0000911,8.13257306 93.8046647,6.97790449 93.413812,6.40057021 C93.0881013,5.88738418 92.2412536,5.63079116 90.9384111,5.63079116 Z M86.1830357,4.47612259 L87.8115889,4.47612259 L87.7464468,5.82323592 L87.8115889,5.88738418 C88.3978681,4.86101212 89.5704264,4.34782609 91.4595481,4.34782609 C93.0881013,4.34782609 94.1955175,4.73271561 94.8469388,5.56664291 C95.4332179,6.40057021 95.7589286,7.87598004 95.7589286,10.0570207 C95.7589286,12.1097648 95.4332179,13.5210264 94.8469388,14.2908054 C94.1955175,15.0605845 93.0881013,15.445474 91.5246902,15.445474 C89.7007106,15.445474 88.5281523,14.9964362 87.9418732,14.0342124 L87.876731,14.0342124 L87.876731,20 L86.2481778,20 L86.2481778,4.47612259 L86.1830357,4.47612259 Z" id="Fill-4" fill="#FFFEFC"></path>
                    <path d="M102.287946,5.71214393 C100.883482,5.71214393 99.9890938,5.97201399 99.6698973,6.42678661 C99.3507009,6.88155922 99.1598214,8.11594203 99.1598214,10.0649675 C99.1598214,12.013993 99.3507009,13.2483758 99.6698973,13.7031484 C99.9890938,14.157921 100.883482,14.4177911 102.287946,14.4177911 C103.691772,14.4177911 104.586161,14.157921 104.905357,13.7031484 C105.224554,13.2483758 105.415433,12.013993 105.415433,10.0649675 C105.415433,8.11594203 105.224554,6.88155922 104.905357,6.42678661 C104.586161,5.90704648 103.691772,5.71214393 102.287946,5.71214393 M102.287946,4.34782609 C104.266964,4.34782609 105.606951,4.67266367 106.182143,5.38730635 C106.756696,6.10194903 107.075893,7.5962019 107.075893,10 C107.075893,12.3388306 106.756696,13.898051 106.182143,14.6126937 C105.606951,15.3273363 104.266964,15.6521739 102.287946,15.6521739 C100.30829,15.6521739 99.0315045,15.3273363 98.3931116,14.6126937 C97.8191964,13.898051 97.5,12.4037981 97.5,10 C97.5,7.66116942 97.8191964,6.10194903 98.3931116,5.38730635 C99.0315045,4.73763118 100.30829,4.34782609 102.287946,4.34782609" id="Fill-6" fill="#FFFEFC"></path>
                    <path d="M109.6875,4.60919829 L111.319754,4.60919829 L111.189174,5.85071626 L111.254464,5.91605931 C111.907366,4.8705705 112.952009,4.34782609 114.453683,4.34782609 C116.477679,4.34782609 117.522321,5.3933149 117.522321,7.48429254 L117.522321,8.26840915 L115.955357,8.26840915 L116.020647,8.00703694 C116.020647,7.74566474 116.085938,7.54963559 116.085938,7.41894948 C116.085938,6.30811762 115.498326,5.72003016 114.257812,5.72003016 C112.429687,5.72003016 111.580915,6.83086203 111.580915,9.05252576 L111.580915,15.6521739 L109.948661,15.6521739 L109.948661,4.60919829 L109.6875,4.60919829 Z" id="Fill-8" fill="#FFFEFC"></path>
                    <path d="M124.96211,4.40471353 L124.96211,5.77001219 L120.682586,5.77001219 L120.682586,12.466477 C120.682586,13.636733 121.209296,14.221861 122.262059,14.221861 C123.316139,14.221861 123.84285,13.7017473 123.84285,12.6615197 L123.84285,12.1414059 L123.84285,11.5562779 L125.357143,11.5562779 L125.357143,12.4014628 C125.357143,14.5469321 124.303721,15.6521739 122.262059,15.6521739 C120.090036,15.6521739 119.036615,14.7419748 119.036615,12.9215766 L119.036615,12.466477 L119.036615,5.70499797 L117.522321,5.70499797 L117.522321,4.40471353 L119.036615,4.40471353 L119.036615,1.73913043 L120.682586,1.73913043 L120.682586,4.40471353 L124.96211,4.40471353 Z" id="Fill-10" fill="#FFFEFC"></path>
                    <path d="M83.5044643,30.9698997 L85.3125,30.9698997 L85.3125,31.5712375 C85.3125,33.7792642 84.9107143,35.1170569 84.1741071,35.7190635 C83.4375,36.2535117 81.5625,36.5217391 78.4821429,36.5217391 C75.8035714,36.5217391 74.0625,36.0535117 73.3258929,35.0501672 C72.5892857,34.1137124 72.2544643,31.8394649 72.2544643,28.2267559 C72.2544643,25.4180602 72.3214286,23.6789298 72.5223214,22.9431438 C72.65625,22.2073579 73.1919643,21.6053512 73.9285714,21.0033445 C74.8660714,20.3344482 76.8080357,20 79.8883929,20 C81.9642857,20 83.3705357,20.3344482 84.0401786,20.9364548 C84.7767857,21.6053512 85.1116071,22.8093645 85.1116071,24.6153846 L85.1116071,25.083612 L83.3035714,25.083612 L83.3035714,24.6153846 C83.3035714,23.3444816 83.1026786,22.4749164 82.7008929,22.0735786 C82.2991071,21.6722408 81.2946429,21.5384615 79.8214286,21.5384615 C77.2098214,21.5384615 75.6026786,21.7391304 75.0669643,22.2073579 C74.4642857,22.6086957 74.1964286,23.812709 74.1964286,25.819398 C74.1964286,30.367893 74.3973214,33.0434783 74.7991071,33.7792642 C75.2008929,34.5812709 76.5401786,34.9832776 78.75,34.9832776 C80.8928571,34.9832776 82.2321429,34.7826087 82.7678571,34.4481605 C83.3035714,34.1137124 83.5714286,33.2434783 83.5714286,31.9056856 L83.5044643,30.9698997 Z" id="Fill-12" fill="#FFFEFC"></path>
                    <path d="M90.9709821,25.6471764 C89.5665179,25.6471764 88.6727679,25.9070465 88.3535714,26.3624688 C88.034375,26.8172414 87.8428571,28.0509745 87.8428571,30 C87.8428571,31.9490255 88.034375,33.184058 88.3535714,33.6388306 C88.6727679,34.0929535 89.5665179,34.3528236 90.9709821,34.3528236 C92.3754464,34.3528236 93.2691964,34.0929535 93.5883929,33.6388306 C93.9075893,33.184058 94.0991071,31.9490255 94.0991071,30 C94.0991071,28.0509745 93.9075893,26.8172414 93.5883929,26.3624688 C93.2053571,25.9070465 92.3754464,25.6471764 90.9709821,25.6471764 M90.9709821,24.3478261 C92.95,24.3478261 94.290625,24.6726637 94.8651786,25.387956 C95.4397321,26.101949 95.7589286,27.5962019 95.7589286,30 C95.7589286,32.3394803 95.4397321,33.898051 94.8651786,34.6133433 C94.290625,35.3273363 92.95,35.6521739 90.9709821,35.6521739 C88.9919643,35.6521739 87.7151786,35.3273363 87.0767857,34.6133433 C86.5022321,33.898051 86.1830357,32.4037981 86.1830357,30 C86.1830357,27.6618191 86.5022321,26.101949 87.0767857,25.387956 C87.6513393,24.6726637 88.928125,24.3478261 90.9709821,24.3478261" id="Fill-14" fill="#FFFEFC"></path>
                    <path d="M98.3705357,24.479272 L100.017898,24.479272 L99.9520037,26.1223458 L100.017898,26.188726 C100.676843,24.9393327 101.863603,24.3478261 103.642096,24.3478261 C105.553036,24.3478261 106.673902,25.0050556 107.06861,26.188726 L107.135163,26.188726 C107.859344,24.9393327 109.111998,24.3478261 110.957044,24.3478261 C113.592824,24.3478261 114.910714,25.6622851 114.910714,28.3569262 L114.910714,35.6521739 L113.263352,35.6521739 L113.263352,28.2254803 C113.263352,27.239636 113.065668,26.5824065 112.736196,26.2537917 C112.406723,25.9251769 111.747778,25.7280081 110.759361,25.7280081 C109.441471,25.7280081 108.584183,25.9908999 108.123581,26.4509606 C107.662319,26.9110212 107.464636,27.8317998 107.464636,29.2113246 L107.464636,35.6521739 L105.817273,35.6521739 L105.817273,28.3569262 L105.817273,27.8317998 C105.817273,26.3852376 105.026539,25.6622851 103.379177,25.6622851 C101.138105,25.6622851 100.017898,26.8459555 100.017898,29.2770475 L100.017898,35.586451 L98.3705357,35.586451 L98.3705357,24.479272 Z" id="Fill-16" fill="#FFFEFC"></path>
                    <path d="M123.148233,25.6307912 C121.84539,25.6307912 120.998542,25.8873842 120.608341,26.4653599 C120.216837,27.0420527 120.02141,28.1967213 120.02141,29.9935139 C120.02141,31.660727 120.216837,32.7518888 120.672832,33.3285816 C121.063684,33.9059159 121.975674,34.1631504 123.214026,34.1631504 C124.451075,34.1631504 125.232781,33.9059159 125.623633,33.3285816 C126.014486,32.8153956 126.209913,31.660727 126.209913,29.9935139 C126.209913,28.1325731 126.014486,26.978546 125.623633,26.4005702 C125.297923,25.9515324 124.451075,25.6307912 123.148233,25.6307912 Z M118.392857,24.4761226 L120.02141,24.4761226 L119.95692,25.8238774 L120.02141,25.8873842 C120.608341,24.8616536 121.780248,24.3478261 123.66937,24.3478261 C125.297923,24.3478261 126.405339,24.7333571 127.05676,25.5666429 C127.643039,26.4005702 127.96875,27.87598 127.96875,30.0570207 C127.96875,32.1104063 127.643039,33.5216679 127.05676,34.2908054 C126.405339,35.0605845 125.297923,35.4461155 123.734512,35.4461155 C121.911183,35.4461155 120.737974,34.9970777 120.151695,34.0348539 L120.086552,34.0348539 L120.086552,40 L118.392857,40 L118.392857,24.4761226 Z" id="Fill-18" fill="#FFFEFC"></path>
                    <path d="M137.614223,29.0254873 L137.614223,28.5057471 C137.614223,27.3363318 137.421432,26.5567216 137.036494,26.1675662 C136.650271,25.8427286 135.814847,25.6471764 134.529578,25.6471764 C133.24431,25.6471764 132.408885,25.8427286 132.023305,26.2968516 C131.637724,26.6866567 131.444934,27.6611694 131.444934,29.0254873 L137.614223,29.0254873 Z M137.614223,32.143928 L139.220808,32.143928 L139.220808,32.5337331 C139.220808,33.7031484 138.899491,34.4827586 138.192593,34.9381809 C137.485696,35.3923038 136.328954,35.6521739 134.593842,35.6521739 C132.601676,35.6521739 131.252786,35.2630185 130.673773,34.5477261 C130.031139,33.8330835 129.709821,32.2738631 129.709821,29.870065 C129.709821,27.6611694 130.031139,26.2318841 130.673773,25.4522739 C131.316407,24.6726637 132.538055,24.3478261 134.401051,24.3478261 C136.39386,24.3478261 137.742749,24.6726637 138.321763,25.3223388 C138.964397,25.972014 139.285714,27.3363318 139.285714,29.415942 L139.285714,30.2598701 L131.444934,30.2598701 C131.444934,32.0146427 131.637724,33.1184408 132.023305,33.5732134 C132.408885,34.027986 133.24431,34.2885057 134.593842,34.2885057 C135.87911,34.2885057 136.715177,34.157921 137.100115,33.9636682 C137.485696,33.7681159 137.679129,33.2483758 137.679129,32.4687656 L137.679129,32.143928 L137.614223,32.143928 Z" id="Fill-20" fill="#FFFEFC"></path>
                    <path d="M148.466574,25.2618807 L148.466574,26.6214762 L144.18705,26.6214762 L144.18705,33.3508595 C144.18705,34.5156724 144.713761,35.0980789 145.766523,35.0980789 C146.820603,35.0980789 147.347314,34.5803842 147.347314,33.5449949 L147.347314,33.0273003 L147.347314,32.445541 L148.861607,32.445541 L148.861607,33.2861476 C148.861607,35.421638 147.808186,36.5217391 145.766523,36.5217391 C143.5945,36.5217391 142.541079,35.6157735 142.541079,33.8038423 L142.541079,33.4162184 L142.541079,26.6214762 L141.026786,26.6214762 L141.026786,25.2618807 L142.541079,25.2618807 L142.541079,22.6086957 L144.18705,22.6086957 L144.18705,25.2618807 L148.466574,25.2618807 Z" id="Fill-22" fill="#FFFEFC"></path>
                    <path d="M157.636544,29.0254873 L157.636544,28.5057471 C157.636544,27.3363318 157.443754,26.5567216 157.058816,26.1675662 C156.672593,25.8427286 155.837168,25.6471764 154.5519,25.6471764 C153.266631,25.6471764 152.431207,25.8427286 152.045626,26.2968516 C151.660046,26.6866567 151.467255,27.6611694 151.467255,29.0254873 L157.636544,29.0254873 Z M157.636544,32.143928 L159.24313,32.143928 L159.24313,32.5337331 C159.24313,33.7031484 158.921813,34.4827586 158.214915,34.9381809 C157.508017,35.3923038 156.351276,35.6521739 154.616163,35.6521739 C152.623997,35.6521739 151.275108,35.2630185 150.696094,34.5477261 C150.05346,33.8330835 149.732143,32.2738631 149.732143,29.870065 C149.732143,27.6611694 150.05346,26.2318841 150.696094,25.4522739 C151.338728,24.6726637 152.560376,24.3478261 154.423373,24.3478261 C156.416182,24.3478261 157.765071,24.6726637 158.344084,25.3223388 C158.986719,25.972014 159.308036,27.3363318 159.308036,29.415942 L159.308036,30.2598701 L151.467255,30.2598701 C151.467255,32.0146427 151.660046,33.1184408 152.045626,33.5732134 C152.431207,34.027986 153.266631,34.2885057 154.616163,34.2885057 C155.901432,34.2885057 156.737499,34.157921 157.122437,33.9636682 C157.508017,33.7681159 157.70145,33.2483758 157.70145,32.4687656 L157.70145,32.143928 L157.636544,32.143928 Z" id="Fill-24" fill="#FFFEFC"></path>
                    <path d="M161.919643,24.479272 L163.538104,24.479272 L163.470668,25.9908999 L163.538104,26.0566229 C164.077591,24.9393327 165.291436,24.3478261 167.314512,24.3478261 C168.932973,24.3478261 170.080057,24.6107179 170.618869,25.2028817 C171.225792,25.793731 171.495536,26.8459555 171.495536,28.4226491 L171.495536,35.6521739 L169.809639,35.6521739 L169.809639,28.4890293 L169.809639,28.0940344 C169.809639,27.1081901 169.607331,26.5173407 169.270152,26.188726 C168.865537,25.8601112 168.191178,25.6622851 167.112204,25.6622851 C164.751949,25.6622851 163.605539,26.7138524 163.605539,28.8827098 L163.605539,35.586451 L161.919643,35.586451 L161.919643,24.479272 Z" id="Fill-26" fill="#FFFEFC"></path>
                    <path d="M182.043328,31.558806 L183.683036,31.558806 L183.683036,32.14348 C183.683036,34.4821762 182.109572,35.6521739 179.026266,35.6521739 C177.058617,35.6521739 175.681918,35.2617416 175.090967,34.5477896 C174.435084,33.8325384 174.107143,32.2740572 174.107143,29.9347114 C174.107143,27.7265924 174.435084,26.2967396 175.090967,25.5171742 C175.746851,24.7376088 176.993684,24.3478261 178.830157,24.3478261 C180.601041,24.3478261 181.846563,24.6083309 182.502446,25.1280411 C183.158329,25.6471017 183.486271,26.6215585 183.486271,28.1157255 L181.846563,28.1157255 L181.846563,27.85652 C181.846563,27.0113412 181.649798,26.4273168 181.19068,26.166812 C180.797806,25.9076065 179.945158,25.7120655 178.633392,25.7120655 C177.386558,25.7120655 176.599499,25.9719207 176.271557,26.4916309 C175.943615,27.0113412 175.746851,28.245653 175.746851,30.1302524 C175.746851,31.9492383 175.943615,33.1179368 176.337801,33.637647 C176.730675,34.1573573 177.649567,34.4172124 179.158098,34.4172124 C180.40362,34.4172124 181.19068,34.2229707 181.518622,33.8981518 C181.846563,33.5733329 182.043328,32.7931178 182.043328,31.558806" id="Fill-28" fill="#FFFEFC"></path>
                    <g id="Group-32" transform="translate(184.553571, 24.347826)">
                        <mask id="mask-4" fill="white">
                            <use xlink:href="#path-3"></use>
                        </mask>
                        <g id="Clip-31"></g>
                        <path d="M8.55288281,4.89842512 L8.55288281,4.39600966 C8.55288281,3.26557488 8.35701228,2.51195169 7.96592411,2.13576812 C7.57353013,1.82175845 6.72475781,1.63272464 5.41895424,1.63272464 C4.11315067,1.63272464 3.26437835,1.82175845 2.87263728,2.26074396 C2.48089621,2.63755556 2.28502567,3.57958454 2.28502567,4.89842512 L8.55288281,4.89842512 Z M8.55288281,7.91291787 L10.1851373,7.91291787 L10.1851373,8.28972947 C10.1851373,9.42016425 9.85868638,10.1737874 9.14049442,10.614029 C8.42230246,11.0530145 7.24707924,11.3042222 5.48424442,11.3042222 C3.46024888,11.3042222 2.08980804,10.9280386 1.50154353,10.2365894 C0.848641741,9.54576812 0.522190848,8.03852174 0.522190848,5.71485024 C0.522190848,3.57958454 0.848641741,2.19794203 1.50154353,1.44431884 C2.15444531,0.690695652 3.39561161,0.37668599 5.28837388,0.37668599 C7.31302232,0.37668599 8.68346317,0.690695652 9.27172768,1.31871498 C9.92462946,1.9467343 10.2510804,3.26557488 10.2510804,5.27586473 L10.2510804,6.09166184 L2.28502567,6.09166184 C2.28502567,7.78794203 2.48089621,8.85494686 2.87263728,9.29456039 C3.26437835,9.73417391 4.11315067,9.98600966 5.48424442,9.98600966 C6.79004799,9.98600966 7.63947321,9.85977778 8.03056138,9.672 C8.42230246,9.48296618 8.61882589,8.98055072 8.61882589,8.22692754 L8.61882589,7.91291787 L8.55288281,7.91291787 Z" id="Fill-30" fill="#FFFEFC" mask="url(#mask-4)"></path>
                    </g>
                    <path d="M33.515625,36.5217391 C35.2083333,36.5217391 36.5625,35.1690821 36.5625,33.4782609 C36.5625,31.7874396 35.2083333,30.4347826 33.515625,30.4347826 C31.8229167,30.4347826 30.46875,31.7874396 30.46875,33.4782609 C30.46875,35.1007729 31.8229167,36.5217391 33.515625,36.5217391" id="Fill-33" fill="#FFFEFC"></path>
                    <path d="M25.6820191,36.5217391 C27.3740521,36.5217391 28.7276786,35.1690821 28.7276786,33.4782609 C28.7276786,31.7874396 27.3740521,30.4347826 25.6820191,30.4347826 C23.9899861,30.4347826 22.6363596,31.7874396 22.6363596,33.4782609 C22.5686783,35.1007729 23.9223047,36.5217391 25.6820191,36.5217391" id="Fill-35" fill="#FFFEFC"></path>
                    <path d="M18.7165179,36.5217391 C20.4092262,36.5217391 21.7633929,35.1690821 21.7633929,33.4782609 C21.7633929,31.7874396 20.4092262,30.4347826 18.7165179,30.4347826 C17.0238095,30.4347826 15.6696429,31.7874396 15.6696429,33.4782609 C15.6696429,35.1007729 17.0238095,36.5217391 18.7165179,36.5217391" id="Fill-37" fill="#CAC8C8"></path>
                    <path d="M18.7165179,28.6956522 C20.4092262,28.6956522 21.7633929,27.3429952 21.7633929,25.6521739 C21.7633929,23.9613527 20.4092262,22.6086957 18.7165179,22.6086957 C17.0238095,22.6086957 15.6696429,23.9613527 15.6696429,25.6521739 C15.6696429,27.274686 17.0238095,28.6956522 18.7165179,28.6956522" id="Fill-39" fill="#CAC8C8"></path>
                    <path d="M10.8816964,30.4347826 C9.1889881,30.4347826 7.83482143,31.7874396 7.83482143,33.4782609 C7.83482143,35.1690821 9.1889881,36.5217391 10.8816964,36.5217391 C12.5744048,36.5217391 13.9285714,35.1690821 13.9285714,33.4782609 C13.9285714,31.7874396 12.5744048,30.4347826 10.8816964,30.4347826" id="Fill-41" fill="#CAC8C8"></path>
                    <path d="M10.8816964,22.6086957 C9.1889881,22.6086957 7.83482143,23.9613527 7.83482143,25.6521739 C7.83482143,27.3429952 9.1889881,28.6956522 10.8816964,28.6956522 C12.5744048,28.6956522 13.9285714,27.3429952 13.9285714,25.6521739 C13.9285714,23.9613527 12.5744048,22.6086957 10.8816964,22.6086957" id="Fill-43" fill="#CAC8C8"></path>
                    <path d="M3.046875,30.4347826 C1.35416667,30.4347826 0,31.7874396 0,33.4782609 C0,35.1690821 1.35416667,36.5217391 3.046875,36.5217391 C4.73958333,36.5217391 6.09375,35.1690821 6.09375,33.4782609 C6.09375,31.7874396 4.73958333,30.4347826 3.046875,30.4347826" id="Fill-45" fill="#CAC8C8"></path>
                    <path d="M33.515625,28.6956522 C31.8229167,28.6956522 30.46875,27.3429952 30.46875,25.6521739 C30.46875,23.9613527 31.8229167,22.6086957 33.515625,22.6086957 C35.2083333,22.6086957 36.5625,23.9613527 36.5625,25.6521739 C36.5625,27.274686 35.2083333,28.6956522 33.515625,28.6956522" id="Fill-47" fill="#FFFEFC"></path>
                    <path d="M25.6808036,28.6956522 C23.9880952,28.6956522 22.6339286,27.3429952 22.6339286,25.6521739 C22.6339286,23.9613527 23.9880952,22.6086957 25.6808036,22.6086957 C27.3735119,22.6086957 28.7276786,23.9613527 28.7276786,25.6521739 C28.7276786,27.274686 27.3735119,28.6956522 25.6808036,28.6956522" id="Fill-49" fill="#CAC8C8"></path>
                    <path d="M33.515625,21.7391304 C31.8229167,21.7391304 30.46875,20.3864734 30.46875,18.6956522 C30.46875,17.0048309 31.8229167,15.6521739 33.515625,15.6521739 C35.2083333,15.6521739 36.5625,17.0048309 36.5625,18.6956522 C36.5625,20.3188406 35.2083333,21.7391304 33.515625,21.7391304" id="Fill-51" fill="#CAC8C8"></path>
                    <path d="M25.6808036,21.7391304 C23.9880952,21.7391304 22.6339286,20.3864734 22.6339286,18.6956522 C22.6339286,17.0048309 23.9880952,15.6521739 25.6808036,15.6521739 C27.3735119,15.6521739 28.7276786,17.0048309 28.7276786,18.6956522 C28.7276786,20.3188406 27.3735119,21.7391304 25.6808036,21.7391304" id="Fill-53" fill="#CAC8C8"></path>
                    <path d="M33.515625,13.9130435 C31.8229167,13.9130435 30.46875,12.5603865 30.46875,10.8695652 C30.46875,9.17874396 31.8229167,7.82608696 33.515625,7.82608696 C35.2083333,7.82608696 36.5625,9.17874396 36.5625,10.8695652 C36.5625,12.5603865 35.2083333,13.9130435 33.515625,13.9130435" id="Fill-55" fill="#CAC8C8"></path>
                    <path d="M63.9855905,36.5217391 C65.6776236,36.5217391 67.03125,35.1690821 67.03125,33.4782609 C67.03125,31.7874396 65.6776236,30.4347826 63.9855905,30.4347826 C62.2935575,30.4347826 60.9399311,31.7874396 60.9399311,33.4782609 C60.8722497,35.1007729 62.2258762,36.5217391 63.9855905,36.5217391" id="Fill-57" fill="#CAC8C8"></path>
                    <path d="M57.0200893,36.5217391 C58.7127976,36.5217391 60.0669643,35.1690821 60.0669643,33.4782609 C60.0669643,31.7874396 58.7127976,30.4347826 57.0200893,30.4347826 C55.327381,30.4347826 53.9732143,31.7874396 53.9732143,33.4782609 C53.9732143,35.1007729 55.327381,36.5217391 57.0200893,36.5217391" id="Fill-59" fill="#CAC8C8"></path>
                    <path d="M49.1864288,36.5217391 C50.8784922,36.5217391 52.2321429,35.1690821 52.2321429,33.4782609 C52.2321429,31.7874396 50.8784922,30.4347826 49.1864288,30.4347826 C47.4943654,30.4347826 46.1407147,31.7874396 46.1407147,33.4782609 C46.0730322,35.1007729 47.4943654,36.5217391 49.1864288,36.5217391" id="Fill-61" fill="#CAC8C8"></path>
                    <path d="M41.3504464,36.5217391 C43.0431548,36.5217391 44.3973214,35.1690821 44.3973214,33.4782609 C44.3973214,31.7874396 43.0431548,30.4347826 41.3504464,30.4347826 C39.6577381,30.4347826 38.3035714,31.7874396 38.3035714,33.4782609 C38.3035714,35.1007729 39.6577381,36.5217391 41.3504464,36.5217391" id="Fill-63" fill="#CAC8C8"></path>
                    <path d="M49.1864288,6.08695652 C50.8784922,6.08695652 52.2321429,4.73429952 52.2321429,3.04347826 C52.2321429,1.352657 50.8784922,0 49.1864288,0 C47.4943654,0 46.1407147,1.352657 46.1407147,3.04347826 C46.0730322,4.73429952 47.4943654,6.08695652 49.1864288,6.08695652" id="Fill-65" fill="#FFFEFC"></path>
                    <path d="M49.1852679,13.9130435 C50.8779762,13.9130435 52.2321429,12.5603865 52.2321429,10.8695652 C52.2321429,9.17874396 50.8779762,7.82608696 49.1852679,7.82608696 C47.4925595,7.82608696 46.1383929,9.17874396 46.1383929,10.8695652 C46.1383929,12.5603865 47.4925595,13.9130435 49.1852679,13.9130435" id="Fill-67" fill="#FFFEFC"></path>
                    <path d="M49.1864288,21.7391304 C50.8784922,21.7391304 52.2321429,20.3864734 52.2321429,18.6956522 C52.2321429,17.0048309 50.8784922,15.6521739 49.1864288,15.6521739 C47.4943654,15.6521739 46.1407147,17.0048309 46.1407147,18.6956522 C46.0730322,20.3188406 47.4943654,21.7391304 49.1864288,21.7391304" id="Fill-69" fill="#FFFEFC"></path>
                    <path d="M49.1864288,28.6956522 C50.8784922,28.6956522 52.2321429,27.3429952 52.2321429,25.6521739 C52.2321429,23.9613527 50.8784922,22.6086957 49.1864288,22.6086957 C47.4943654,22.6086957 46.1407147,23.9613527 46.1407147,25.6521739 C46.0730322,27.274686 47.4943654,28.6956522 49.1864288,28.6956522" id="Fill-71" fill="#CAC8C8"></path>
                    <path d="M41.3504464,28.6956522 C43.0431548,28.6956522 44.3973214,27.3429952 44.3973214,25.6521739 C44.3973214,23.9613527 43.0431548,22.6086957 41.3504464,22.6086957 C39.6577381,22.6086957 38.3035714,23.9613527 38.3035714,25.6521739 C38.3035714,27.274686 39.6577381,28.6956522 41.3504464,28.6956522" id="Fill-73" fill="#FFFEFC"></path>
                    <path d="M41.3504464,21.7391304 C43.0431548,21.7391304 44.3973214,20.3864734 44.3973214,18.6956522 C44.3973214,17.0048309 43.0431548,15.6521739 41.3504464,15.6521739 C39.6577381,15.6521739 38.3035714,17.0048309 38.3035714,18.6956522 C38.3035714,20.3188406 39.6577381,21.7391304 41.3504464,21.7391304" id="Fill-75" fill="#FFFEFC"></path>
                    <path d="M41.3504464,13.9130435 C43.0431548,13.9130435 44.3973214,12.5603865 44.3973214,10.8695652 C44.3973214,9.17874396 43.0431548,7.82608696 41.3504464,7.82608696 C39.6577381,7.82608696 38.3035714,9.17874396 38.3035714,10.8695652 C38.3035714,12.5603865 39.6577381,13.9130435 41.3504464,13.9130435" id="Fill-77" fill="#CAC8C8"></path>
                    <path d="M41.3504464,6.08695652 C43.0431548,6.08695652 44.3973214,4.73429952 44.3973214,3.04347826 C44.3973214,1.352657 43.0431548,0 41.3504464,0 C39.6577381,0 38.3035714,1.352657 38.3035714,3.04347826 C38.3035714,4.73429952 39.6577381,6.08695652 41.3504464,6.08695652" id="Fill-79" fill="#FFFEFC"></path>
                    <path d="M63.984375,28.6956522 C62.2916667,28.6956522 60.9375,27.3429952 60.9375,25.6521739 C60.9375,23.9613527 62.2916667,22.6086957 63.984375,22.6086957 C65.6770833,22.6086957 67.03125,23.9613527 67.03125,25.6521739 C67.03125,27.274686 65.6770833,28.6956522 63.984375,28.6956522" id="Fill-81" fill="#FFFEFC"></path>
                    <path d="M57.0189284,28.6956522 C55.326865,28.6956522 53.9732143,27.3429952 53.9732143,25.6521739 C53.9732143,23.9613527 55.326865,22.6086957 57.0189284,22.6086957 C58.7109917,22.6086957 60.0646424,23.9613527 60.0646424,25.6521739 C60.132325,27.274686 58.7109917,28.6956522 57.0189284,28.6956522" id="Fill-83" fill="#CAC8C8"></path>
                    <path d="M63.984375,21.7391304 C62.2916667,21.7391304 60.9375,20.3864734 60.9375,18.6956522 C60.9375,17.0048309 62.2916667,15.6521739 63.984375,15.6521739 C65.6770833,15.6521739 67.03125,17.0048309 67.03125,18.6956522 C67.03125,20.3188406 65.6770833,21.7391304 63.984375,21.7391304" id="Fill-85" fill="#FFFEFC"></path>
                    <path d="M57.0189284,21.7391304 C55.326865,21.7391304 53.9732143,20.3864734 53.9732143,18.6956522 C53.9732143,17.0048309 55.326865,15.6521739 57.0189284,15.6521739 C58.7109917,15.6521739 60.0646424,17.0048309 60.0646424,18.6956522 C60.132325,20.3188406 58.7109917,21.7391304 57.0189284,21.7391304" id="Fill-87" fill="#FFFEFC"></path>
                    <path d="M63.984375,13.9130435 C62.2916667,13.9130435 60.9375,12.5603865 60.9375,10.8695652 C60.9375,9.17874396 62.2916667,7.82608696 63.984375,7.82608696 C65.6770833,7.82608696 67.03125,9.17874396 67.03125,10.8695652 C67.03125,12.5603865 65.6770833,13.9130435 63.984375,13.9130435" id="Fill-89" fill="#FFFEFC"></path>
                    <path d="M57.0200893,13.9130435 C55.327381,13.9130435 53.9732143,12.5603865 53.9732143,10.8695652 C53.9732143,9.17874396 55.327381,7.82608696 57.0200893,7.82608696 C58.7127976,7.82608696 60.0669643,9.17874396 60.0669643,10.8695652 C60.0669643,12.5603865 58.7127976,13.9130435 57.0200893,13.9130435" id="Fill-91" fill="#FFFEFC"></path>
                    <path d="M63.984375,6.08695652 C62.2916667,6.08695652 60.9375,4.73429952 60.9375,3.04347826 C60.9375,1.352657 62.2916667,0 63.984375,0 C65.6770833,0 67.03125,1.352657 67.03125,3.04347826 C67.03125,4.73429952 65.6770833,6.08695652 63.984375,6.08695652" id="Fill-93" fill="#FFFEFC"></path>
                    <path d="M57.0189284,6.08695652 C55.326865,6.08695652 53.9732143,4.73429952 53.9732143,3.04347826 C53.9732143,1.352657 55.326865,0 57.0189284,0 C58.7109917,0 60.0646424,1.352657 60.0646424,3.04347826 C60.132325,4.73429952 58.7109917,6.08695652 57.0189284,6.08695652" id="Fill-95" fill="#FFFEFC"></path>
                </g>
            </g>
        </g>
    </g>
</svg>