<?xml version="1.0" encoding="UTF-8"?>
<svg width="18px" height="15px" viewBox="0 0 18 15" version="1.1" xmlns="http://www.w3.org/2000/svg" xmlns:xlink="http://www.w3.org/1999/xlink">
    <!-- Generator: Sketch 49.3 (51167) - http://www.bohemiancoding.com/sketch -->
    <title>ion-social-twitter - Ionicons</title>
    <desc>Created with Sketch.</desc>
    <defs></defs>
    <g id="Design" stroke="none" stroke-width="1" fill="none" fill-rule="evenodd">
        <g id="Home-page---Desktop" transform="translate(-1306.000000, -33.000000)" fill="#424242">
            <path d="M1324,34.796875 C1323.54237,35.5260453 1322.93221,36.1770805 1322.16949,36.75 L1322.16949,37.21875 C1322.16949,39.9531387 1321.20976,42.4335826 1319.29025,44.6601562 C1317.37075,46.8867299 1314.82205,48 1311.64407,48 C1309.61016,48 1307.72882,47.4270891 1306,46.28125 C1306.40678,46.3333336 1306.69915,46.359375 1306.87712,46.359375 C1308.58052,46.359375 1310.10593,45.8125055 1311.45339,44.71875 C1310.66525,44.6927082 1309.95339,44.4388045 1309.3178,43.9570312 C1308.6822,43.475258 1308.25,42.8567746 1308.02119,42.1015625 C1308.32627,42.1536461 1308.55508,42.1796875 1308.70763,42.1796875 C1308.96187,42.1796875 1309.29237,42.1276047 1309.69915,42.0234375 C1308.86017,41.8411449 1308.15466,41.4049514 1307.58263,40.7148438 C1307.01059,40.0247361 1306.72458,39.2239629 1306.72458,38.3125 L1306.72458,38.2734375 C1307.2839,38.5859391 1307.84322,38.7421875 1308.40254,38.7421875 C1307.30932,38.0130172 1306.76271,36.9583402 1306.76271,35.578125 C1306.76271,34.9270801 1306.92796,34.3020863 1307.25847,33.703125 C1309.21611,36.1770957 1311.74575,37.4921867 1314.84746,37.6484375 C1314.79661,37.4661449 1314.77119,37.1796895 1314.77119,36.7890625 C1314.77119,35.7213488 1315.12712,34.8229203 1315.83898,34.09375 C1316.55085,33.3645797 1317.42796,33 1318.47034,33 C1319.51272,33 1320.40254,33.4036418 1321.13983,34.2109375 C1321.90255,34.0807285 1322.69067,33.7682316 1323.50424,33.2734375 C1323.25,34.1849004 1322.70339,34.8880184 1321.86441,35.3828125 C1322.65255,35.3046871 1323.3644,35.1093766 1324,34.796875 Z" id="ion-social-twitter---Ionicons"></path>
        </g>
    </g>
</svg>