<?xml version="1.0" encoding="UTF-8"?>
<svg width="24px" height="18px" viewBox="0 0 24 18" version="1.1" xmlns="http://www.w3.org/2000/svg" xmlns:xlink="http://www.w3.org/1999/xlink">
    <!-- Generator: Sketch 49.3 (51167) - http://www.bohemiancoding.com/sketch -->
    <title>ion-social-youtube - Ionicons</title>
    <desc>Created with Sketch.</desc>
    <defs></defs>
    <g id="Design" stroke="none" stroke-width="1" fill="none" fill-rule="evenodd">
        <g id="Desktop-HD-Copy" transform="translate(-864.000000, -2780.000000)" fill="#A0A0A0">
            <g id="Footer-Copy" transform="translate(0.000000, 2488.000000)">
                <g id="Contact-Us" transform="translate(725.000000, 80.000000)">
                    <g id="Social-footer" transform="translate(1.000000, 212.000000)">
                        <path d="M161.859375,3.984375 C161.953125,5.67188344 162,7.34374172 162,9 C162,10.6562583 161.953125,12.3281166 161.859375,14.015625 C161.859375,15.0781303 161.523441,15.9765588 160.851562,16.7109375 C160.179684,17.4453162 159.35938,17.8125 158.390625,17.8125 C155.984363,17.9375006 153.187516,18 150,18 C146.812484,18 144.015637,17.9375006 141.609375,17.8125 C140.64062,17.8125 139.820316,17.4453162 139.148438,16.7109375 C138.476559,15.9765588 138.140625,15.0781303 138.140625,14.015625 C138.046875,12.3281166 138,10.6562583 138,9 C138,7.90624453 138.062499,6.23438625 138.1875,3.984375 C138.1875,2.92186969 138.515622,2.02344117 139.171875,1.2890625 C139.828128,0.554683828 140.64062,0.1875 141.609375,0.1875 C143.890636,0.062499375 146.54686,0 149.578125,0 L150.421875,0 C153.45314,0 156.109364,0.062499375 158.390625,0.1875 C159.35938,0.1875 160.179684,0.554683828 160.851562,1.2890625 C161.523441,2.02344117 161.859375,2.92186969 161.859375,3.984375 Z M147.703125,13.59375 L154.5,9 L147.703125,4.359375 L147.703125,13.59375 Z" id="ion-social-youtube---Ionicons"></path>
                    </g>
                </g>
            </g>
        </g>
    </g>
</svg>