<?xml version="1.0" encoding="UTF-8"?>
<svg width="20px" height="15px" viewBox="0 0 20 15" version="1.1" xmlns="http://www.w3.org/2000/svg" xmlns:xlink="http://www.w3.org/1999/xlink">
    <!-- Generator: Sketch 49.3 (51167) - http://www.bohemiancoding.com/sketch -->
    <title>ion-social-youtube - Ionicons</title>
    <desc>Created with Sketch.</desc>
    <defs></defs>
    <g id="Design" stroke="none" stroke-width="1" fill="none" fill-rule="evenodd">
        <g id="Desktop-HD-Copy" transform="translate(-1396.000000, -33.000000)" fill="#FFFEFC">
            <path d="M1415.88281,36.3203125 C1415.96094,37.7265695 1416,39.1197848 1416,40.5 C1416,41.8802152 1415.96094,43.2734305 1415.88281,44.6796875 C1415.88281,45.5651086 1415.60287,46.313799 1415.04297,46.9257812 C1414.48307,47.5377635 1413.79948,47.84375 1412.99219,47.84375 C1410.98697,47.9479172 1408.65626,48 1406,48 C1403.34374,48 1401.01303,47.9479172 1399.00781,47.84375 C1398.20052,47.84375 1397.51693,47.5377635 1396.95703,46.9257812 C1396.39713,46.313799 1396.11719,45.5651086 1396.11719,44.6796875 C1396.03906,43.2734305 1396,41.8802152 1396,40.5 C1396,39.5885371 1396.05208,38.1953219 1396.15625,36.3203125 C1396.15625,35.4348914 1396.42968,34.686201 1396.97656,34.0742188 C1397.52344,33.4622365 1398.20052,33.15625 1399.00781,33.15625 C1400.90886,33.0520828 1403.12238,33 1405.64844,33 L1406.35156,33 C1408.87762,33 1411.09114,33.0520828 1412.99219,33.15625 C1413.79948,33.15625 1414.48307,33.4622365 1415.04297,34.0742188 C1415.60287,34.686201 1415.88281,35.4348914 1415.88281,36.3203125 Z M1404.08594,44.328125 L1409.75,40.5 L1404.08594,36.6328125 L1404.08594,44.328125 Z" id="ion-social-youtube---Ionicons"></path>
        </g>
    </g>
</svg>