<?xml version="1.0" encoding="UTF-8"?>
<svg width="15px" height="15px" viewBox="0 0 15 15" version="1.1" xmlns="http://www.w3.org/2000/svg" xmlns:xlink="http://www.w3.org/1999/xlink">
    <!-- Generator: Sketch 49.3 (51167) - http://www.bohemiancoding.com/sketch -->
    <title>ion-social-instagram - Ionicons</title>
    <desc>Created with Sketch.</desc>
    <defs></defs>
    <g id="Design" stroke="none" stroke-width="1" fill="none" fill-rule="evenodd">
        <g id="Desktop-HD-Copy" transform="translate(-1365.000000, -33.000000)" fill="#FFFEFC">
            <path d="M1372.5,43.625 C1370.41666,43.625 1369.375,42.5833437 1369.375,40.5 C1369.375,38.4166563 1370.41666,37.375 1372.5,37.375 C1374.58334,37.375 1375.625,38.4166563 1375.625,40.5 C1375.625,42.5833437 1374.58334,43.625 1372.5,43.625 Z M1369.41406,37.4140625 C1368.86718,37.9609402 1368.50261,38.5729133 1368.32031,39.25 L1365,39.25 L1365,34.875 C1365,34.3281223 1365.18229,33.8854184 1365.54688,33.546875 C1365.96354,33.1822898 1366.41927,33 1366.91406,33 L1378.16406,33 C1378.65886,33 1379.08854,33.1822898 1379.45312,33.546875 C1379.81771,33.9114602 1380,34.3541641 1380,34.875 L1380,39.25 L1376.71875,39.25 C1376.53646,38.5729133 1376.17188,37.9609402 1375.625,37.4140625 C1374.76562,36.5546832 1373.72396,36.125 1372.5,36.125 C1371.30208,36.125 1370.27344,36.5546832 1369.41406,37.4140625 Z M1378.75,36.28125 L1378.75,34.7578125 C1378.75,34.6276035 1378.69792,34.5104172 1378.59375,34.40625 C1378.48958,34.3020828 1378.3724,34.25 1378.24219,34.25 L1376.75781,34.25 C1376.6276,34.25 1376.51042,34.3020828 1376.40625,34.40625 C1376.30208,34.5104172 1376.25,34.6276035 1376.25,34.7578125 L1376.25,36.28125 C1376.25,36.411459 1376.30208,36.5286453 1376.40625,36.6328125 C1376.48438,36.7109379 1376.60156,36.75 1376.75781,36.75 L1378.24219,36.75 C1378.39844,36.75 1378.51562,36.7109379 1378.59375,36.6328125 C1378.69792,36.5286453 1378.75,36.411459 1378.75,36.28125 Z M1375.625,43.5859375 C1376.45834,42.7526 1376.875,41.7239645 1376.875,40.5 L1380,40.5 L1380,46.125 C1380,46.5937523 1379.81771,47.0364563 1379.45312,47.453125 C1379.11458,47.8177102 1378.6849,48 1378.16406,48 L1366.91406,48 C1366.39323,48 1365.95052,47.8177102 1365.58594,47.453125 C1365.19531,47.062498 1365,46.6197941 1365,46.125 L1365,40.5 L1368.16406,40.5 C1368.16406,41.7239645 1368.58073,42.7526 1369.41406,43.5859375 C1370.27344,44.4453168 1371.30208,44.875 1372.5,44.875 C1373.72396,44.875 1374.76562,44.4453168 1375.625,43.5859375 Z" id="ion-social-instagram---Ionicons"></path>
        </g>
    </g>
</svg>