<?xml version="1.0" encoding="UTF-8"?>
<svg width="128px" height="47px" viewBox="0 0 128 47" version="1.1" xmlns="http://www.w3.org/2000/svg" xmlns:xlink="http://www.w3.org/1999/xlink">
    <!-- Generator: Sketch 49.3 (51167) - http://www.bohemiancoding.com/sketch -->
    <title>iplay-header-logo</title>
    <desc>Created with Sketch.</desc>
    <defs></defs>
    <g id="Design" stroke="none" stroke-width="1" fill="none" fill-rule="evenodd">
        <g id="Desktop-HD-Copy" transform="translate(-22.000000, -16.000000)">
            <g id="iplay-header-logo" transform="translate(22.000000, 16.000000)">
                <polygon id="Fill-1" fill="#00FF7B" points="120.793724 -5.2244898e-05 116.537505 8.4996702 123.770887 8.4996702 128.027105 -5.2244898e-05"></polygon>
                <polygon id="Fill-2" fill="#7FFEA5" points="109.303811 -5.2244898e-05 105.048114 8.4996702 112.280975 8.4996702 116.537714 -5.2244898e-05"></polygon>
                <polygon id="Fill-3" fill="#CCFFDF" points="97.8143673 -5.2244898e-05 93.5576279 8.4996702 100.791531 8.4996702 105.04827 -5.2244898e-05"></polygon>
                <polygon id="Fill-4" fill="#010900" points="103.640945 13.0166073 97.2175273 26.8766563 93.9854909 13.0166073 86.6087758 13.0166073 92.6595273 35.8768849 87.0789091 46.7594971 94.1653091 46.7594971 110.713273 13.0166073"></polygon>
                <path d="M103.516636,12.8210024 L97.2792909,26.2792882 L94.1410727,12.8210024 L86.3546848,12.8210024 L92.451303,35.8542106 L86.7586242,46.9552065 L94.2870121,46.9552065 L111.027824,12.8210024 L103.516636,12.8210024 Z M103.765776,13.2128392 L110.399764,13.2128392 L94.0430848,46.5638922 L87.3991939,46.5638922 L92.8333515,35.9665371 L92.8677515,35.8996637 L86.8623455,13.2128392 L93.8304303,13.2128392 L97.1562848,27.474129 L103.765776,13.2128392 Z" id="Fill-5" fill="#010900"></path>
                <g id="Group-14" transform="translate(0.000000, 11.428937)" fill="#010900">
                    <path d="M76.0479236,21.45792 L74.4769903,9.47241796 L69.1965903,21.45792 L76.0479236,21.45792 Z M55.072263,35.3681241 L69.2987479,6.51274449 C71.2183721,2.61945469 73.2990509,1.04479347 76.1208933,1.04479347 C78.8259842,1.04479347 80.528263,2.7944751 81.1677903,6.51274449 L86.1135721,35.3681241 L77.8810267,35.3681241 L76.862057,27.6108016 L66.4909782,27.6108016 L63.0723479,35.3681241 L55.072263,35.3681241 Z" id="Fill-6"></path>
                    <path d="M45.0625406,1.03110531 L52.9109527,1.03110531 L49.1337285,24.8824686 C49.0159345,25.589342 48.9575588,26.1640359 48.9575588,26.6504359 C48.9575588,28.3886237 49.7951467,28.8452441 52.3819224,28.8452441 L61.3915952,28.8452441 L60.3919103,35.179938 C58.1142133,35.2833829 53.49888,35.445342 51.4854376,35.445342 C45.9152436,35.445342 40.8000679,35.1360522 40.8000679,29.0077257 C40.8000679,28.3295869 40.8594861,27.5783053 40.9913527,26.7533584 L45.0625406,1.03110531 Z" id="Fill-8"></path>
                    <path d="M26.098863,16.089809 C29.8025964,16.089809 32.0511055,15.0882743 32.6682206,11.1986416 C32.7422327,10.6829845 32.7860145,10.2263641 32.7860145,9.81362939 C32.7860145,7.41245388 31.4193964,6.44017633 27.730257,6.44017633 C26.6424873,6.44017633 25.3639539,6.51384163 24.2026933,6.67580082 L22.7479903,15.9273273 C23.83576,16.0751804 24.9521964,16.089809 26.098863,16.089809 Z M19.7645721,34.7558661 L11.9307539,34.7558661 L17.2512873,1.07776 C20.4108752,0.47380898 24.4085721,0.0762253061 28.5678448,0.0762253061 C35.3138933,0.0762253061 40.6636145,1.29875592 40.6636145,8.37010286 C40.6636145,9.22430694 40.5901236,10.1673273 40.4285479,11.1986416 C38.9738448,20.4653192 33.168063,22.468911 25.34936,22.468911 C24.1735055,22.468911 22.7625842,22.4098743 21.7337115,22.3508376 L19.7645721,34.7558661 Z" id="Fill-10"></path>
                    <polyline id="Fill-12" points="12.8143127 0.420414694 5.40059152 0.420414694 4.25965818 7.64745143 0.000312727273 34.6073861 7.39057939 34.6073861"></polyline>
                </g>
            </g>
        </g>
    </g>
</svg>