<?xml version="1.0" encoding="UTF-8"?>
<svg width="9px" height="18px" viewBox="0 0 9 18" version="1.1" xmlns="http://www.w3.org/2000/svg" xmlns:xlink="http://www.w3.org/1999/xlink">
    <!-- Generator: Sketch 49.3 (51167) - http://www.bohemiancoding.com/sketch -->
    <title>ion-social-facebook - Ionicons</title>
    <desc>Created with Sketch.</desc>
    <defs></defs>
    <g id="Design" stroke="none" stroke-width="1" fill="none" fill-rule="evenodd">
        <g id="Desktop-HD-Copy" transform="translate(-778.000000, -2780.000000)" fill="#A0A0A0">
            <g id="Footer-Copy" transform="translate(0.000000, 2488.000000)">
                <g id="Contact-Us" transform="translate(725.000000, 80.000000)">
                    <g id="Social-footer" transform="translate(1.000000, 212.000000)">
                        <path d="M58,6 L61,6 L60.625,9 L58,9 L58,18 L54.109375,18 L54.109375,9 L52,9 L52,6 L54.109375,6 L54.109375,3.984375 C54.109375,2.67186844 54.4374967,1.67969086 55.09375,1.0078125 C55.7500033,0.335934141 56.8437423,0 58.375,0 L61,0 L61,3 L59.40625,3 C58.812497,3 58.4296884,3.09374906 58.2578125,3.28125 C58.0859366,3.46875094 58,3.78124781 58,4.21875 L58,6 Z" id="ion-social-facebook---Ionicons"></path>
                    </g>
                </g>
            </g>
        </g>
    </g>
</svg>