<?xml version="1.0" encoding="UTF-8"?>
<svg width="18px" height="18px" viewBox="0 0 18 18" version="1.1" xmlns="http://www.w3.org/2000/svg" xmlns:xlink="http://www.w3.org/1999/xlink">
    <!-- Generator: Sketch 49.3 (51167) - http://www.bohemiancoding.com/sketch -->
    <title>ion-social-instagram - Ionicons</title>
    <desc>Created with Sketch.</desc>
    <defs></defs>
    <g id="Design" stroke="none" stroke-width="1" fill="none" fill-rule="evenodd">
        <g id="Desktop-HD-Copy" transform="translate(-817.000000, -2780.000000)" fill="#A0A0A0">
            <g id="Footer-Copy" transform="translate(0.000000, 2488.000000)">
                <g id="Contact-Us" transform="translate(725.000000, 80.000000)">
                    <g id="Social-footer" transform="translate(1.000000, 212.000000)">
                        <path d="M100,12.75 C97.4999875,12.75 96.25,11.5000125 96.25,9 C96.25,6.4999875 97.4999875,5.25 100,5.25 C102.500012,5.25 103.75,6.4999875 103.75,9 C103.75,11.5000125 102.500012,12.75 100,12.75 Z M96.296875,5.296875 C95.6406217,5.95312828 95.2031261,6.68749594 94.984375,7.5 L91,7.5 L91,2.25 C91,1.59374672 91.2187478,1.06250203 91.65625,0.65625 C92.1562525,0.218747812 92.703122,0 93.296875,0 L106.796875,0 C107.390628,0 107.906248,0.218747812 108.34375,0.65625 C108.781252,1.09375219 109,1.62499688 109,2.25 L109,7.5 L105.0625,7.5 C104.843749,6.68749594 104.406253,5.95312828 103.75,5.296875 C102.718745,4.26561984 101.468757,3.75 100,3.75 C98.5624928,3.75 97.3281302,4.26561984 96.296875,5.296875 Z M107.5,3.9375 L107.5,2.109375 C107.5,1.95312422 107.437501,1.81250063 107.3125,1.6875 C107.187499,1.56249938 107.046876,1.5 106.890625,1.5 L105.109375,1.5 C104.953124,1.5 104.812501,1.56249938 104.6875,1.6875 C104.562499,1.81250063 104.5,1.95312422 104.5,2.109375 L104.5,3.9375 C104.5,4.09375078 104.562499,4.23437437 104.6875,4.359375 C104.78125,4.45312547 104.921874,4.5 105.109375,4.5 L106.890625,4.5 C107.078126,4.5 107.21875,4.45312547 107.3125,4.359375 C107.437501,4.23437437 107.5,4.09375078 107.5,3.9375 Z M103.75,12.703125 C104.750005,11.70312 105.25,10.4687573 105.25,9 L109,9 L109,15.75 C109,16.3125028 108.781252,16.8437475 108.34375,17.34375 C107.937498,17.7812522 107.421878,18 106.796875,18 L93.296875,18 C92.6718719,18 92.1406272,17.7812522 91.703125,17.34375 C91.2343727,16.8749977 91,16.343753 91,15.75 L91,9 L94.796875,9 C94.796875,10.4687573 95.29687,11.70312 96.296875,12.703125 C97.3281302,13.7343802 98.5624928,14.25 100,14.25 C101.468757,14.25 102.718745,13.7343802 103.75,12.703125 Z" id="ion-social-instagram---Ionicons"></path>
                    </g>
                </g>
            </g>
        </g>
    </g>
</svg>