<?xml version="1.0" encoding="UTF-8"?>
<svg width="220px" height="40px" viewBox="0 0 220 40" version="1.1" xmlns="http://www.w3.org/2000/svg" xmlns:xlink="http://www.w3.org/1999/xlink">
    <!-- Generator: Sketch 49.3 (51167) - http://www.bohemiancoding.com/sketch -->
    <title>XPS </title>
    <desc>Created with Sketch.</desc>
    <defs>
        <polygon id="path-1" points="1.03481307 0 89.999196 0 89.999196 19.6665556 1.03481307 19.6665556"></polygon>
        <polygon id="path-3" points="0 0.888666667 27.3265945 0.888666667 27.3265945 34.4442222 0 34.4442222"></polygon>
        <polygon id="path-5" points="0 0.666777778 27.3264834 0.666777778 27.3264834 24.4444444 0 24.4444444"></polygon>
    </defs>
    <g id="Design" stroke="none" stroke-width="1" fill="none" fill-rule="evenodd" opacity="0.5">
        <g id="Player-profile-Mobile---Biography-Collapsed-Copy" transform="translate(-16.000000, -2064.000000)">
            <g id="Footer" transform="translate(0.000000, 1072.000000)">
                <g id="XPS-" transform="translate(16.000000, 992.000000)">
                    <g id="Group-3" transform="translate(129.934673, 0.000000)">
                        <mask id="mask-2" fill="white">
                            <use xlink:href="#path-1"></use>
                        </mask>
                        <g id="Clip-2"></g>
                        <path d="M89.8790342,18.2221111 L84.5472704,11.9998889 L89.4348131,7.99988889 C89.7668683,7.77766667 89.8790342,7.22211111 89.5447578,6.88877778 C89.3237578,6.55544444 88.7684814,6.55544444 88.434205,6.77766667 L81.4377226,12.3332222 L81.4377226,0.888777778 C81.4377226,0.444333333 81.1056673,-0.000111111111 80.6603357,-0.000111111111 C80.2172251,-0.000111111111 79.7718935,0.333222222 79.7718935,0.888777778 L79.7718935,18.6665556 C79.7718935,19.111 80.2172251,19.5554444 80.6603357,19.5554444 C81.1056673,19.5554444 81.4377226,19.111 81.4377226,18.6665556 L81.4377226,14.4443333 L83.2157176,12.9998889 L88.6563156,19.3332222 C88.8795367,19.6665556 89.4348131,19.6665556 89.7668683,19.4443333 C89.9900894,19.111 90.1000342,18.5554444 89.8790342,18.2221111 Z M76.6634563,6.55544444 C75.5529035,6.55544444 74.6644613,6.77766667 73.7760191,7.22211111 C72.9986322,7.66655556 72.3311899,8.22211111 71.7759136,8.99988889 L71.7759136,7.55544444 C71.7759136,7.111 71.4427477,6.66655556 70.8874714,6.66655556 C70.4443608,6.66655556 70.1100844,6.99988889 70.1100844,7.55544444 L70.1100844,18.6665556 C70.1100844,19.111 70.4443608,19.5554444 70.8874714,19.5554444 C71.332803,19.5554444 71.7759136,19.111 71.7759136,18.6665556 L71.7759136,12.4443333 C71.7759136,11.2221111 72.3311899,10.111 73.2207427,9.22211111 C74.1091849,8.44433333 75.3296824,7.99988889 76.552401,7.99988889 C76.9955116,7.99988889 77.3286774,7.66655556 77.3286774,7.22211111 C77.3286774,6.88877778 77.1076774,6.55544444 76.6634563,6.55544444 Z M64.7794312,16.6665556 C63.8920995,17.6665556 62.5583256,18.111 61.3378281,18.111 C60.0051648,18.111 58.7835568,17.5554444 57.894004,16.6665556 C57.0055618,15.6665556 56.5624513,14.4443333 56.5624513,13.111 C56.5624513,11.7776667 57.0055618,10.5554444 57.894004,9.55544444 C58.7835568,8.66655556 60.0051648,8.111 61.3378281,8.111 C62.6704915,8.111 63.8920995,8.66655556 64.7794312,9.55544444 C65.6678734,10.5554444 66.2231497,11.7776667 66.2231497,13.111 C66.113205,14.4443333 65.6678734,15.6665556 64.7794312,16.6665556 Z M65.8899839,8.44433333 C64.6694864,7.22211111 63.0036573,6.55544444 61.2256623,6.55544444 C59.4498884,6.55544444 57.7840593,7.22211111 56.5624513,8.44433333 C55.3397327,9.66655556 54.6745116,11.3332222 54.6745116,13.111 C54.6745116,14.8887778 55.3397327,16.5554444 56.5624513,17.7776667 C57.7840593,18.9998889 59.4498884,19.6665556 61.2256623,19.6665556 C63.0036573,19.6665556 64.6694864,18.9998889 65.8899839,17.7776667 C67.1127025,16.5554444 67.7790342,14.8887778 67.7790342,13.111 C67.7790342,11.3332222 67.1127025,9.66655556 65.8899839,8.44433333 Z M65.8899839,17.7776667 C66.0021497,17.5554444 66.113205,17.5554444 65.8899839,17.7776667 C66.0021497,17.6665556 66.0021497,17.6665556 65.8899839,17.7776667 C66.0021497,17.6665556 66.0021497,17.6665556 65.8899839,17.7776667 C65.112597,18.5554444 65.6678734,17.9998889 65.8899839,17.7776667 Z M53.5639588,6.77766667 C53.1186271,6.66655556 52.6755166,6.77766667 52.5633508,7.22211111 L49.1217477,16.5554444 L46.1232553,7.22211111 C46.0122,6.88877778 45.7900894,6.66655556 45.4569236,6.66655556 C45.1226472,6.66655556 44.7894814,6.88877778 44.7894814,7.22211111 L41.7909889,16.5554444 L38.3493859,7.22211111 C38.1261648,6.77766667 37.7941095,6.66655556 37.3487779,6.77766667 C37.0156121,6.88877778 36.7935015,7.33322222 36.9056673,7.77766667 C37.9040543,10.6665556 41.1257678,19.111 41.1257678,19.111 C41.2357126,19.4443333 41.5699889,19.6665556 41.9031548,19.6665556 C42.2363206,19.6665556 42.4584312,19.4443333 42.5683759,19.111 L45.5679789,9.99988889 L48.5664714,19.111 C48.6764161,19.4443333 48.8996372,19.6665556 49.2316925,19.6665556 C49.5648583,19.6665556 49.8991347,19.4443333 50.0101899,19.111 L54.2291799,7.77766667 C54.1192352,7.33322222 53.8971246,6.88877778 53.5639588,6.77766667 Z M34.9066724,6.88877778 L32.3512905,6.88877778 L32.3512905,2.66655556 C32.3512905,2.22211111 32.0181246,1.77766667 31.5750141,1.77766667 C31.130793,1.77766667 30.6854613,2.111 30.6854613,2.66655556 L30.6854613,6.88877778 L28.4643558,6.88877778 C28.0212452,6.88877778 27.7991347,7.22211111 27.7991347,7.55544444 C27.7991347,7.99988889 28.0212452,8.22211111 28.4643558,8.22211111 L30.6854613,8.22211111 L30.6854613,18.5554444 C30.6854613,18.9998889 31.130793,19.3332222 31.5750141,19.3332222 C32.0181246,19.3332222 32.3512905,18.9998889 32.3512905,18.5554444 L32.3512905,8.33322222 L34.9066724,8.33322222 C35.3497829,8.33322222 35.573004,7.99988889 35.573004,7.66655556 C35.573004,7.22211111 35.2398382,6.88877778 34.9066724,6.88877778 Z M16.4703859,12.2221111 C16.693607,9.88877778 18.6914915,7.99988889 21.0247628,7.99988889 C22.1353156,7.99988889 23.2458683,8.44433333 24.1343106,9.22211111 C25.0227528,9.99988889 25.4669739,11.111 25.5780291,12.2221111 L16.4703859,12.2221111 Z M21.1358181,6.55544444 C19.4699889,6.55544444 17.8041598,7.22211111 16.5825518,8.44433333 C15.3598332,9.66655556 14.8045568,11.3332222 14.8045568,13.111 C14.8045568,14.8887778 15.471999,16.5554444 16.693607,17.7776667 C17.9141045,18.9998889 19.5799337,19.6665556 21.3579286,19.6665556 C23.3569236,19.6665556 25.4669739,18.7776667 26.6885819,17.111 C26.9106925,16.7776667 26.9106925,16.3332222 26.5775266,16.111 C26.2432503,15.8887778 25.9100844,15.8887778 25.5780291,16.2221111 C24.4674764,17.4443333 23.0237578,18.2221111 21.3579286,18.2221111 C20.1352101,18.2221111 18.9147126,17.7776667 18.0262704,16.8887778 C17.1378281,15.9998889 16.5825518,14.8887778 16.5825518,13.5554444 L26.7985266,13.5554444 C27.2438583,13.5554444 27.4659688,13.3332222 27.4659688,12.9998889 C27.4659688,11.3332222 26.7985266,9.66655556 25.6879739,8.44433333 C24.3564211,7.22211111 22.8016472,6.55544444 21.1358181,6.55544444 Z M6.92074271,6.55544444 C3.69902915,6.55544444 1.03481307,9.22211111 1.03481307,12.4443333 L1.03481307,18.6665556 C1.03481307,19.2221111 1.47792362,19.5554444 1.92325528,19.5554444 C2.36636583,19.5554444 2.81169749,19.2221111 2.81169749,18.6665556 L2.81169749,12.2221111 C2.81169749,9.88877778 4.69963719,7.99988889 7.03068744,7.99988889 C9.36395879,7.99988889 11.2507879,9.88877778 11.2507879,12.2221111 L11.2507879,18.6665556 C11.2507879,19.111 11.5850643,19.5554444 12.1403407,19.5554444 C12.5834513,19.5554444 13.0287829,19.2221111 13.0287829,18.6665556 L13.0287829,12.4443333 C12.9166171,9.22211111 10.252401,6.55544444 6.92074271,6.55544444 Z" id="Fill-1" fill="#CAC8C8" mask="url(#mask-2)"></path>
                    </g>
                    <path d="M75.441293,19.8887778 L55.4513432,19.8887778 L55.4513432,13.2221111 L75.441293,13.2221111 C77.3292327,13.2221111 78.7729513,14.7776667 78.7729513,16.5554444 C78.7729513,18.3332222 77.3292327,19.8887778 75.441293,19.8887778 Z M75.441293,6.44433333 L49.4543583,6.44433333 C49.1211925,6.44433333 48.7880266,6.77766667 48.7880266,7.111 L48.7880266,39.3332222 C48.7880266,39.6665556 49.1211925,39.9998889 49.4543583,39.9998889 L54.7850116,39.9998889 C55.1181774,39.9998889 55.4513432,39.6665556 55.4513432,39.3332222 L55.4513432,26.5554444 L75.441293,26.5554444 C80.9940568,26.5554444 85.5473231,21.9998889 85.5473231,16.4443333 C85.5473231,10.8887778 80.9940568,6.44433333 75.441293,6.44433333 Z M29.5754638,25.111 C29.4644085,24.9998889 29.242298,24.9998889 29.1312427,25.111 L24.9111422,29.3332222 C24.8000869,29.4443333 24.8000869,29.6665556 24.9111422,29.7776667 L34.5729513,39.4443333 C34.7950618,39.6665556 35.3503382,39.8887778 35.683504,39.8887778 L43.7905392,39.8887778 C44.123705,39.8887778 44.2347603,39.6665556 44.0126497,39.4443333 L29.5754638,25.111 Z M35.683504,6.44433333 C35.3503382,6.44433333 34.7950618,6.66655556 34.5729513,6.88877778 L24.9111422,16.5554444 C24.8000869,16.6665556 24.8000869,16.8887778 24.9111422,16.9998889 L29.1312427,21.2221111 C29.242298,21.3332222 29.4644085,21.3332222 29.5754638,21.2221111 L44.0126497,6.77766667 C44.2347603,6.55544444 44.2347603,6.33322222 43.7905392,6.33322222 L35.683504,6.33322222 L35.683504,6.44433333 Z M115.199082,19.8887778 L98.5407905,19.8887778 C96.6528508,19.8887778 95.2091322,18.3332222 95.2091322,16.5554444 C95.2091322,14.6665556 96.763906,13.2221111 98.5407905,13.2221111 L121.196067,13.2221111 C121.529233,13.2221111 121.862398,12.8887778 121.862398,12.5554444 L121.862398,7.111 C121.862398,6.77766667 121.529233,6.44433333 121.196067,6.44433333 L98.6518457,6.44433333 C93.0990819,6.44433333 88.5458156,10.9998889 88.5458156,16.5554444 C88.5458156,22.111 93.0990819,26.6665556 98.6518457,26.6665556 L115.310137,26.6665556 C117.198077,26.6665556 118.641795,28.2221111 118.641795,29.9998889 C118.641795,31.8887778 117.087022,33.3332222 115.310137,33.3332222 L89.2121472,33.3332222 C88.8789814,33.3332222 88.5458156,33.6665556 88.5458156,33.9998889 L88.5458156,39.3332222 C88.5458156,39.6665556 88.8789814,39.9998889 89.2121472,39.9998889 L115.199082,39.9998889 C120.751846,39.9998889 125.305112,35.4443333 125.305112,29.8887778 C125.305112,24.3332222 120.751846,19.8887778 115.199082,19.8887778 Z" id="Fill-4" fill="#FFFFFF"></path>
                    <g id="Group-8" transform="translate(0.000000, 5.555556)">
                        <mask id="mask-4" fill="white">
                            <use xlink:href="#path-3"></use>
                        </mask>
                        <g id="Clip-7"></g>
                        <path d="M10.4739563,0.888666667 L0.367926131,0.888666667 C0.0347603015,0.888666667 -0.0762949749,1.11088889 0.145815578,1.33311111 L16.4709412,17.6675556 L0.145815578,33.9997778 C-0.0762949749,34.222 -0.0762949749,34.4442222 0.367926131,34.4442222 L10.4739563,34.4442222 C10.8071221,34.4442222 11.3623985,34.222 11.584509,33.9997778 C14.1387804,31.4442222 25.6885291,19.8897778 26.5769714,18.9997778 C27.5764688,17.9997778 27.5764688,17.3331111 26.5769714,16.3331111 C25.6885291,15.4442222 14.1387804,3.88866667 11.584509,1.33311111 C11.3623985,1.11088889 10.8071221,0.888666667 10.4739563,0.888666667" id="Fill-6" fill="#CAC8C8" mask="url(#mask-4)"></path>
                    </g>
                    <g id="Group-11" transform="translate(0.000000, 15.555556)">
                        <mask id="mask-6" fill="white">
                            <use xlink:href="#path-5"></use>
                        </mask>
                        <g id="Clip-10"></g>
                        <path d="M20.9130412,0.666777778 C21.9125387,1.66677778 21.9125387,2.33344444 20.9130412,3.33344444 C20.5798754,3.66677778 18.2477146,6.00011111 15.5823879,8.66677778 L0.145704523,24.0001111 C-0.0764060302,24.2223333 -0.0764060302,24.4445556 0.367815075,24.4445556 L10.4738452,24.4445556 C10.8070111,24.4445556 11.3622874,24.2223333 11.584398,24.0001111 C14.1386693,21.4445556 25.6884181,9.889 26.5768603,9.00011111 C27.5763578,8.00011111 27.5763578,7.33344444 26.5768603,6.33344444 C26.2436945,5.889 23.8004784,3.44455556 20.9130412,0.666777778" id="Fill-9" fill="#CAC8C8" mask="url(#mask-6)"></path>
                    </g>
                </g>
            </g>
        </g>
    </g>
</svg>