<?xml version="1.0" encoding="UTF-8"?>
<svg width="78px" height="80px" viewBox="0 0 78 80" version="1.1" xmlns="http://www.w3.org/2000/svg" xmlns:xlink="http://www.w3.org/1999/xlink">
    <!-- Generator: Sketch 49.3 (51167) - http://www.bohemiancoding.com/sketch -->
    <title>FC Barcelona</title>
    <desc>Created with Sketch.</desc>
    <defs></defs>
    <g id="Design" stroke="none" stroke-width="1" fill="none" fill-rule="evenodd" opacity="0.5">
        <g id="Player-profile-Mobile---Biography-Collapsed-Copy" transform="translate(-16.000000, -1872.000000)" fill="#FFFEFC">
            <g id="Footer" transform="translate(0.000000, 1072.000000)">
                <g id="FC-Barcelona" transform="translate(16.000000, 800.000000)">
                    <path d="M72.2626039,43.0868726 C72.3485413,43.9534363 72.2984748,43.9189961 72.3583104,44.4269498 C73.3712419,63.6799228 60.1144474,72.7691892 44.0951401,73.4411583 C41.6458485,75.7560618 38.9486665,77.7900386 38.9486665,77.7900386 C38.9486665,77.7900386 36.2382047,75.7560618 33.789371,73.4411583 C17.7689953,72.7691892 4.51265871,63.6800772 5.52543757,44.4269498 C5.58527319,43.9189961 5.53474873,43.9534363 5.62144932,43.0868726 C4.70285049,42.1033977 3.1829953,40.4992278 2.38025166,39.688417 C8.12706575,33.6555212 14.8323182,19.8550579 5.52497965,7.34108108 C6.13692094,6.34571429 6.57988767,6.01567568 7.4908544,4.7046332 C9.35079569,5.35467181 11.4198564,5.76749035 13.4982282,5.76749035 C18.8351988,5.76749035 22.4795237,5.23158301 26.9597155,2.22988417 C30.5016176,4.71760618 34.3430031,6.27405405 38.9424082,6.27405405 C43.5419659,6.27405405 47.382283,4.71776062 50.9243378,2.22988417 C55.4040716,5.23142857 59.0487018,5.76749035 64.386283,5.76749035 C66.4641969,5.76749035 68.5331049,5.35467181 70.3933515,4.7046332 C71.3040129,6.01552124 71.7471323,6.34571429 72.3589209,7.34108108 C63.0518877,19.8550579 69.7579033,33.6555212 75.5038016,39.688417 C74.7012106,40.4990734 73.1807448,42.1033977 72.2626039,43.0868726 Z M77.8834885,39.7117375 L76.7261577,38.4967568 C73.5133515,35.1233205 69.4333867,28.4516602 69.4333867,20.902471 C69.4333867,16.8545946 70.6067448,12.5538996 73.715602,8.37413127 L74.415007,7.43374517 L73.8010814,6.43451737 C73.4168818,5.80980695 73.0900755,5.40764479 72.7438838,4.98185328 C72.463328,4.63637066 72.1733084,4.27930502 71.7825452,3.71714286 L71.0471166,2.65876448 L69.8392614,3.08100386 C68.0255706,3.71467181 66.1402908,4.04980695 64.386283,4.04980695 C59.2984239,4.04965251 55.9648779,3.54679537 51.8618642,0.797606178 L50.9018994,0.154517375 L49.955825,0.818918919 C46.3263065,3.36841699 42.8259229,4.5565251 38.9424082,4.5565251 C35.0585883,4.5565251 31.5583573,3.36857143 27.9279229,0.818918919 L26.9820012,0.154517375 L26.0224943,0.797606178 C21.9191753,3.54679537 18.5854767,4.04980695 13.4982282,4.04980695 C11.7440677,4.04965251 9.85863523,3.71467181 8.04494442,3.08100386 L6.83708924,2.65891892 L6.10211859,3.71667954 C5.7110501,4.27930502 5.4205726,4.6365251 5.13986419,4.98200772 C4.79382505,5.40764479 4.46717143,5.80965251 4.08358239,6.43389961 L3.4687409,7.43328185 L4.16829863,8.37413127 C7.27730841,12.5540541 8.45051389,16.854749 8.45051389,20.9032432 C8.45051389,28.452278 4.37100705,35.1233205 1.1578955,38.4967568 L-4.57925636e-05,39.7120463 L1.18109706,40.9043243 C1.81456086,41.5440154 2.94273699,42.7285714 3.87583679,43.720695 C3.87293659,43.759305 3.83813425,44.2410039 3.83813425,44.2410039 L3.83004423,44.3353668 C3.79157847,45.0689575 3.77204031,45.7911197 3.77204031,46.5021622 C3.77204031,54.168417 6.01205988,60.5421622 10.4440168,65.4722008 C15.5756841,71.1806178 23.5994571,74.5878764 33.0824865,75.1186873 C35.4371401,77.288417 37.8301068,79.0894981 37.9371088,79.1696525 L38.9509562,79.9307336 L39.9632771,79.1671815 C40.0698211,79.0867181 42.4498133,77.2871815 44.8021773,75.1186873 C54.2847487,74.5878764 62.3082164,71.1806178 67.4397311,65.4722008 C71.8719933,60.5421622 74.1117076,54.1685714 74.1117076,46.5026255 C74.1117076,45.7914286 74.0923221,45.0694208 74.0537037,44.3355212 L74.0529405,44.3186873 L74.0440873,44.2244788 C74.0440873,44.2244788 74.0108114,43.7589961 74.0085217,43.720695 C74.8720168,42.8022394 76.0371323,41.5769112 76.7024982,40.9043243 L77.8834885,39.7117375 Z" id="Fill-1"></path>
                    <path d="M50.8131382,37.5909807 C51.2899914,37.2490502 51.5691734,36.7126795 51.5691734,36.0850347 C51.5691734,34.7434131 50.6253886,33.942332 49.0444767,33.942332 L45.5124963,33.942332 L45.4302223,33.942332 L45.4302223,41.9015598 L49.0108955,41.9015598 C50.7781832,41.9015598 51.8327859,40.9302857 51.8327859,39.3024865 C51.8327859,38.5403243 51.4569816,37.9298224 50.8131382,37.5909807 Z M47.1016509,35.5449575 C47.2521558,35.5449575 48.9782301,35.545112 48.9782301,35.545112 C49.7435765,35.5449575 49.8421832,35.8990888 49.8421832,36.2075058 C49.8421832,36.6462703 49.584829,36.8595521 49.0551616,36.8595521 C49.0551616,36.8593977 47.2530716,36.8595521 47.1016509,36.8595521 L47.1016509,35.545112 L47.1016509,35.5449575 Z M34.8993065,37.9219459 C34.8993065,40.4141467 36.2530873,42.0243398 38.3484023,42.0243398 C39.7142419,42.0241853 40.6980188,41.4167722 41.2719523,40.2187799 L41.3047703,40.1498996 L39.8710051,39.2888958 L39.8288759,39.3604015 C39.4204063,40.0530656 39.0308642,40.3105174 38.3920579,40.3105174 C37.3489033,40.3103629 36.6478192,39.3506718 36.6478192,37.9219459 C36.6478192,36.4487413 37.311964,35.5336834 38.381373,35.5336834 C39.0024728,35.533529 39.4393339,35.7959228 39.7165315,36.3352278 L39.7528603,36.4053436 L41.330872,35.6686641 L41.2945432,35.5925251 C40.7399953,34.4329884 39.7403436,33.819861 38.4028955,33.819861 C36.3400932,33.819861 34.8993065,35.5068108 34.8993065,37.9219459 Z M31.6457448,33.942332 L26.0511147,33.942332 L26.0511147,41.9015598 L27.7553613,41.9015598 L27.7553613,38.6178533 C27.9083084,38.6178533 30.0768916,38.6178533 30.0768916,38.6178533 L30.0768916,36.9370811 C30.0768916,36.9370811 27.9083084,36.9370811 27.7553613,36.9370811 L27.7553613,35.6339151 C27.913193,35.6337606 31.7275609,35.6339151 31.7275609,35.6339151 L31.7275609,33.942332 L31.6457448,33.942332 Z M49.0661519,40.2549189 C49.0661519,40.2549189 47.2530716,40.2550734 47.1016509,40.2550734 L47.1016509,38.4059614 L49.0661519,38.4059614 C49.7605198,38.4059614 50.0842732,38.6978533 50.0842732,39.3250347 C50.0842732,39.9330656 49.7324337,40.2550734 49.0661519,40.2550734 L49.0661519,40.2549189 Z" id="Fill-4"></path>
                    <path d="M29.9378654,15.8457606 L29.9378654,7.57595367 C28.9203546,7.13023938 27.912155,6.60715058 26.9100611,6.00081853 C24.9941002,7.08143629 23.1772039,7.784139 21.3079515,8.23309653 L21.3079515,15.8457606 L12.8218262,15.8457606 C13.1768712,17.5554131 13.3350082,19.2256834 13.3350082,20.8354131 C13.3350082,22.1251429 13.2350278,23.375027 13.0626951,24.5779614 C16.2058967,24.5778069 21.1806481,24.5779614 21.3079515,24.5779614 L21.3079515,32.0556448 L29.9378654,32.0556448 L29.9378654,24.5779614 C30.0244133,24.5778069 34.2061902,24.5779614 38.6874505,24.5779614 L38.6874505,15.8457606 L29.9378654,15.8457606 Z" id="Fill-6"></path>
                    <path d="M53.9949123,7.42937452 L53.9949123,32.0556293 L57.0283644,32.0556293 L57.0283644,8.33269498 C56.0067323,8.11061004 55.0028067,7.81609266 53.9949123,7.42937452 Z M47.927245,7.58381467 L47.927245,32.0556293 L50.9613076,32.0556293 L50.9613076,6.00790734 C49.9570767,6.61485714 48.9465875,7.13825483 47.927245,7.58381467 Z M41.8597303,9.28033977 L41.8597303,32.0556293 L44.8931824,32.0556293 L44.8931824,8.66489575 C43.8955151,8.94196139 42.8853311,9.14721236 41.8597303,9.28033977 Z M60.0625796,8.7943166 L60.0625796,32.0556293 L63.0960317,32.0556293 L63.0960317,8.95385328 C62.0388341,8.93362162 61.0330767,8.88528185 60.062427,8.7943166 L60.0625796,8.7943166 Z" id="Fill-8"></path>
                    <path d="M8.79040157,43.7934672 C8.76918434,43.9775598 8.74430372,44.1863629 8.74430372,44.1863629 C8.74430372,44.1862085 8.68034677,44.6801081 8.67927828,44.6801081 C8.64844462,45.2984865 8.63287515,45.9066718 8.63287515,46.5045097 C8.63287515,52.9279846 10.4273331,58.1727722 13.9793096,62.1147027 C14.8281511,63.0567876 15.7786521,63.9211892 16.8239436,64.7071351 L16.8239436,43.7934672 L8.79040157,43.7934672 Z" id="Fill-10"></path>
                    <path d="M69.2051413,44.6938687 L69.2051413,44.6937143 L69.1393526,44.183444 C69.1393526,44.183444 69.1147773,43.9768031 69.0934074,43.7934826 L61.0597127,43.7934826 L61.0597127,64.7071506 C62.1057675,63.9212046 63.0555053,63.0569575 63.9044994,62.1147181 C67.4569339,58.1721699 69.2515444,52.9261467 69.2515444,46.5108571 C69.2515444,45.915027 69.2364329,45.3094672 69.2051413,44.6938687" id="Fill-12"></path>
                    <path d="M46.2903746,59.8905483 C45.7465115,58.1747181 43.980445,57.9254517 42.8942454,58.311861 C42.8821867,58.0145637 42.8134978,57.7010502 42.6771886,57.3713205 C42.252081,56.3429035 40.7819871,55.0917838 38.941126,56.3784247 C37.5870399,55.348 37.6699245,53.767305 38.2670595,52.8102394 C39.1971065,51.3189653 41.3119597,51.9129421 43.2457796,53.0059151 C44.8135644,53.8919382 46.455991,55.7444479 46.9123902,57.4198147 C46.8342376,58.2902394 46.6193178,59.1212819 46.2903746,59.8905483 Z M38.9417366,64.7731737 C37.2880145,64.7731737 35.7510634,64.2652201 34.4751299,63.3960309 C36.1656387,63.3164942 38.4123746,62.8823629 39.8050791,62.0415907 C41.1568755,61.2258378 42.5915566,60.2090039 42.8537953,58.8514749 L42.8537953,58.8516293 C43.8352826,58.3540232 45.712625,58.5884633 45.9515096,60.5864556 C44.5885703,63.0826718 41.960535,64.7731737 38.9417366,64.7731737 Z M33.8544881,62.9266873 C32.9714548,62.1906255 32.2474744,61.2670734 31.7416192,60.2154903 C31.8055761,60.2191969 31.8702963,60.2210502 31.9350164,60.2210502 C33.2532317,60.2210502 34.3704176,59.608695 34.994265,58.5303938 C35.3868599,58.7901622 35.8583706,58.9693127 36.420856,59.0431351 C37.5313256,59.1869189 39.0774352,58.0687722 39.175126,56.8011274 C40.7042924,55.7064556 41.8831456,56.6985792 42.23758,57.5572664 C42.9397327,59.2553359 41.4624646,60.4797375 39.5616153,61.6276911 C38.0903002,62.5151042 35.5242376,62.9401236 33.8544881,62.9265328 L33.8544881,62.9266873 Z M30.9379597,56.6754131 C30.9379597,54.1382703 32.0905585,51.8740232 33.8944802,50.3900077 C33.7459597,50.984139 33.6015605,51.5046023 33.4870791,52.0360309 C33.074946,53.9446023 33.0795252,56.8178069 34.6138814,58.231861 L34.6138814,58.2320154 C34.0883354,59.1846023 33.1204333,59.7390425 31.9350164,59.7391969 C31.794128,59.7391969 31.6555292,59.7291583 31.5193726,59.7110888 C31.1443315,58.7734826 30.9379597,57.7490811 30.9379597,56.6754131 Z M38.2420262,48.6076139 C37.3188481,49.6273822 37.5094978,51.1206641 38.4624411,51.8902394 C38.2386681,52.0573436 38.0371808,52.2747954 37.8643902,52.5523243 C37.1591847,53.6829807 37.0585937,55.5863012 38.6973569,56.7949498 L38.6973569,56.7951042 C38.5970712,57.7453745 37.3475448,58.6764942 36.4817601,58.564834 C34.6260928,58.3240618 33.7502337,56.5812046 33.7206211,54.4408185 C33.6980301,52.8527104 34.1429812,51.4633668 34.4923785,49.942749 C35.5830047,49.2031351 36.8622963,48.7282317 38.2420262,48.6076139 Z M39.011036,48.5770347 C43.237537,48.6131737 46.6828168,51.9632896 46.9313178,56.185529 C46.1761984,54.7229807 44.797537,53.3308571 43.4779479,52.5844479 C42.079901,51.7947954 40.2451456,51.0729421 38.9211299,51.6284633 L38.9211299,51.6286178 C37.9205624,50.9981931 37.7480771,49.4159537 39.011036,48.5770347 Z M38.9348677,48.0948726 C34.2638736,48.0948726 30.4543902,51.9492355 30.4543902,56.6752587 C30.4543902,61.400973 34.2638736,65.2554903 38.9348677,65.2554903 C43.6055566,65.2554903 47.4151926,61.400973 47.4151926,56.6752587 C47.4151926,51.9492355 43.6055566,48.0948726 38.9348677,48.0948726 Z" id="Fill-14"></path>
                    <path d="M30.454375,56.6751969 C30.454375,53.5842317 32.0842849,50.8668571 34.518465,49.3559691 L34.518465,43.7934981 L25.6713417,43.7934981 L25.6713417,68.9009884 C28.3532595,69.6421467 31.3135961,70.1014517 34.518465,70.2651583 L34.518465,63.9944247 C32.0842849,62.4833822 30.454375,59.7660077 30.454375,56.6751969" id="Fill-16"></path>
                    <path d="M43.3657256,43.7934672 L43.3657256,49.3655135 C45.7918157,50.8781004 47.415162,53.5906873 47.415162,56.675166 C47.415162,59.7596448 45.7918157,62.4720772 43.3657256,63.9848185 L43.3657256,63.9960927 L43.3657256,70.2651274 C46.5710524,70.1003398 49.5309311,69.6411892 52.2125436,68.9003398 L52.2125436,43.7934672 L43.3657256,43.7934672 Z" id="Fill-18"></path>
                </g>
            </g>
        </g>
    </g>
</svg>