<?xml version="1.0" encoding="UTF-8"?>
<svg width="219px" height="80px" viewBox="0 0 219 80" version="1.1" xmlns="http://www.w3.org/2000/svg" xmlns:xlink="http://www.w3.org/1999/xlink">
    <!-- Generator: Sketch 49.3 (51167) - http://www.bohemiancoding.com/sketch -->
    <title>iplay-footer-logo</title>
    <desc>Created with Sketch.</desc>
    <defs></defs>
    <g id="Design" stroke="none" stroke-width="1" fill="none" fill-rule="evenodd">
        <g id="Desktop-HD-Copy" transform="translate(-140.000000, -2568.000000)">
            <g id="Footer-Copy" transform="translate(0.000000, 2488.000000)">
                <g id="IPLAY-footer" transform="translate(140.000000, 80.000000)">
                    <g id="iplay-footer-logo">
                        <polygon id="Fill-1" fill="#00FF7B" points="206.318832 -8.88888889e-05 199.0491 14.4612444 211.403905 14.4612444 218.673637 -8.88888889e-05"></polygon>
                        <polygon id="Fill-2" fill="#169C3F" points="186.693761 -8.88888889e-05 179.42492 14.4612444 191.778834 14.4612444 199.049456 -8.88888889e-05"></polygon>
                        <polygon id="Fill-3" fill="#075220" points="167.069491 -8.88888889e-05 159.79887 14.4612444 172.154565 14.4612444 179.425187 -8.88888889e-05"></polygon>
                        <polygon id="Fill-4" fill="#FFFFFF" points="177.021439 22.1463111 166.050073 45.7276444 160.529671 22.1463111 147.930049 22.1463111 158.26489 61.0405333 148.733049 79.5560889 160.836805 79.5560889 189.101159 22.1463111"></polygon>
                        <path d="M176.809116,21.8135111 L166.155567,44.7112889 L160.795409,21.8135111 L147.496055,21.8135111 L157.909238,61.0019556 L148.185994,79.8890667 L161.044677,79.8890667 L189.638421,21.8135111 L176.809116,21.8135111 Z M177.234652,22.4801778 L188.565677,22.4801778 L160.628043,79.2232889 L149.280104,79.2232889 L158.561787,61.1930667 L158.620543,61.0792889 L148.363152,22.4801778 L160.264823,22.4801778 L165.94547,46.7441778 L177.234652,22.4801778 Z" id="Fill-5" fill="#FFFFFF"></path>
                        <g id="Group-14" transform="translate(0.000000, 19.445067)" fill="#FFFFFF">
                            <path d="M129.891838,36.5082667 L127.208643,16.1162667 L118.189582,36.5082667 L129.891838,36.5082667 Z M94.0648622,60.1749333 L118.36407,11.0807111 C121.642838,4.45671111 125.196691,1.7776 130.016472,1.7776 C134.636838,1.7776 137.544374,4.75448889 138.636704,11.0807111 L147.084228,60.1749333 L133.022826,60.1749333 L131.282399,46.9767111 L113.568326,46.9767111 L107.729216,60.1749333 L94.0648622,60.1749333 Z" id="Fill-6"></path>
                            <path d="M76.9679951,1.75431111 L90.3732878,1.75431111 L83.9216902,42.3347556 C83.7204951,43.5374222 83.6207878,44.5152 83.6207878,45.3427556 C83.6207878,48.3000889 85.0514098,49.0769778 89.4696902,49.0769778 L104.858446,49.0769778 L103.150959,59.8547556 C99.2605927,60.0307556 91.3774829,60.3063111 87.9384707,60.3063111 C78.4244341,60.3063111 69.6875805,59.7800889 69.6875805,49.3534222 C69.6875805,48.1996444 69.7890683,46.9214222 70.0143,45.5178667 L76.9679951,1.75431111 Z" id="Fill-8"></path>
                            <path d="M44.577539,27.3750222 C50.9036122,27.3750222 54.7441244,25.6710222 55.7981732,19.0532444 C55.9245878,18.1759111 55.9993683,17.3990222 55.9993683,16.6968 C55.9993683,12.6114667 53.6651488,10.9572444 47.3640024,10.9572444 C45.5060634,10.9572444 43.3222951,11.0825778 41.3388317,11.3581333 L38.854161,27.0985778 C40.7121,27.3501333 42.6190024,27.3750222 44.577539,27.3750222 Z M33.7584049,59.1332444 L20.378039,59.1332444 L29.4656488,1.83368889 C34.8623073,0.806133333 41.690478,0.129688889 48.7946244,0.129688889 C60.3170512,0.129688889 69.4545146,2.20968889 69.4545146,14.2408 C69.4545146,15.6941333 69.3289902,17.2985778 69.0530146,19.0532444 C66.5683439,34.8194667 56.6519171,38.2283556 43.2973683,38.2283556 C41.288978,38.2283556 38.8790878,38.1279111 37.1217463,38.0274667 L33.7584049,59.1332444 Z" id="Fill-10"></path>
                            <polyline id="Fill-12" points="21.8871805 0.715288889 9.22435122 0.715288889 7.27560732 13.0112889 0.000534146341 58.8806222 12.6233024 58.8806222"></polyline>
                        </g>
                    </g>
                </g>
            </g>
        </g>
    </g>
</svg>