<?xml version="1.0" encoding="UTF-8"?>
<svg width="23px" height="18px" viewBox="0 0 23 18" version="1.1" xmlns="http://www.w3.org/2000/svg" xmlns:xlink="http://www.w3.org/1999/xlink">
    <!-- Generator: Sketch 49.3 (51167) - http://www.bohemiancoding.com/sketch -->
    <title>ion-social-twitter - Ionicons</title>
    <desc>Created with Sketch.</desc>
    <defs></defs>
    <g id="Design" stroke="none" stroke-width="1" fill="none" fill-rule="evenodd">
        <g id="Desktop-HD-Copy" transform="translate(-726.000000, -2780.000000)" fill="#A0A0A0">
            <g id="Footer-Copy" transform="translate(0.000000, 2488.000000)">
                <g id="Contact-Us" transform="translate(725.000000, 80.000000)">
                    <g id="Social-footer" transform="translate(1.000000, 212.000000)">
                        <path d="M22.125,2.15625 C21.5624972,3.03125437 20.8125047,3.81249656 19.875,4.5 L19.875,5.0625 C19.875,8.34376641 18.6953243,11.3202991 16.3359375,13.9921875 C13.9765507,16.6640759 10.8437695,18 6.9375,18 C4.4374875,18 2.12501062,17.3125069 0,15.9375 C0.5000025,16.0000003 0.859373906,16.03125 1.078125,16.03125 C3.17188547,16.03125 5.04686672,15.3750066 6.703125,14.0625 C5.73437016,14.0312498 4.85937891,13.7265654 4.078125,13.1484375 C3.29687109,12.5703096 2.76562641,11.8281295 2.484375,10.921875 C2.85937688,10.9843753 3.14062406,11.015625 3.328125,11.015625 C3.64062656,11.015625 4.0468725,10.9531256 4.546875,10.828125 C3.51561984,10.6093739 2.64844102,10.0859416 1.9453125,9.2578125 C1.24218398,8.42968336 0.890625,7.46875547 0.890625,6.375 L0.890625,6.328125 C1.57812844,6.70312687 2.26562156,6.890625 2.953125,6.890625 C1.60936828,6.01562063 0.9375,4.75000828 0.9375,3.09375 C0.9375,2.31249609 1.14062297,1.56250359 1.546875,0.84375 C3.95313703,3.81251484 7.06248094,5.39062406 10.875,5.578125 C10.8124997,5.35937391 10.78125,5.01562734 10.78125,4.546875 C10.78125,3.26561859 11.2187456,2.18750437 12.09375,1.3125 C12.9687544,0.437495625 14.0468686,0 15.328125,0 C16.6093814,0 17.7031205,0.484370156 18.609375,1.453125 C19.5468797,1.29687422 20.51562,0.921877969 21.515625,0.328125 C21.2031234,1.42188047 20.5312552,2.26562203 19.5,2.859375 C20.4687548,2.76562453 21.3437461,2.53125188 22.125,2.15625 Z" id="ion-social-twitter---Ionicons"></path>
                    </g>
                </g>
            </g>
        </g>
    </g>
</svg>